<svg version="1.1" viewBox="0.0 0.0 960.0 540.0" fill="none" stroke="none" stroke-linecap="square" stroke-miterlimit="10" xmlns:xlink="http://www.w3.org/1999/xlink" xmlns="http://www.w3.org/2000/svg"><clipPath id="g3bf7cea38fa_0_2.0"><path d="m0 0l960.0 0l0 540.0l-960.0 0l0 -540.0z" clip-rule="nonzero"/></clipPath><g clip-path="url(#g3bf7cea38fa_0_2.0)"><path fill="#ffffff" d="m0 0l960.0 0l0 540.0l-960.0 0z" fill-rule="evenodd"/><path fill="#000000" fill-opacity="0.0" d="m71.95276 104.87576l0 0c0 -15.164879 12.293556 -27.458443 27.458435 -27.458443l761.1776 0c7.2824097 0 14.266602 2.8929367 19.416077 8.042397c5.149414 5.149452 8.042358 12.133614 8.042358 19.416046l0 330.24847c0 15.164886 -12.293579 27.458435 -27.458435 27.458435l-761.1776 0l0 0c-15.164879 0 -27.458435 -12.293549 -27.458435 -27.458435z" fill-rule="evenodd"/><path stroke="#ff0000" stroke-width="8.0" stroke-linejoin="round" stroke-linecap="butt" d="m71.95276 104.87576l0 0c0 -15.164879 12.293556 -27.458443 27.458435 -27.458443l761.1776 0c7.2824097 0 14.266602 2.8929367 19.416077 8.042397c5.149414 5.149452 8.042358 12.133614 8.042358 19.416046l0 330.24847c0 15.164886 -12.293579 27.458435 -27.458435 27.458435l-761.1776 0l0 0c-15.164879 0 -27.458435 -12.293549 -27.458435 -27.458435z" fill-rule="evenodd"/><path fill="#ff0000" d="m181.70691 291.88l7.8125 0l12.296875 -32.40625l-8.671875 0l-7.109375 22.859375l-0.4375 2.265625l-0.453125 -2.265625l-7.125 -22.859375l-8.6875 0l12.375 32.40625zm36.80287 0l7.8125 0l12.296875 -32.40625l-8.671875 0l-7.109375 22.859375l-0.4375 2.265625l-0.453125 -2.265625l-7.125 -22.859375l-8.6875 0l12.375 32.40625zm28.224747 -46.0l0 6.796875l9.703125 0l0 32.4375l-9.703125 0l0 6.765625l27.40625 0l0 -6.765625l-9.28125 0l0 -39.234375l-18.125 0zm55.318512 46.0l8.4375 0l0 -0.515625q-0.625 -1.21875 -0.953125 -2.921875q-0.328125 -1.71875 -0.328125 -4.3125l0 -13.90625q0 -2.8125 -1.046875 -4.953125q-1.046875 -2.140625 -2.90625 -3.546875q-1.859375 -1.40625 -4.390625 -2.125q-2.53125 -0.71875 -5.46875 -0.71875q-3.265625 0 -5.796875 0.828125q-2.515625 0.8125 -4.265625 2.21875q-1.765625 1.421875 -2.6875 3.28125q-0.90625 1.84375 -0.90625 3.90625l8.328125 0q0 -0.859375 0.25 -1.578125q0.265625 -0.71875 0.796875 -1.234375q0.609375 -0.5625 1.5625 -0.875q0.953125 -0.3125 2.28125 -0.3125q1.484375 0 2.609375 0.375q1.125 0.375 1.875 1.0625q0.71875 0.65625 1.078125 1.578125q0.359375 0.90625 0.359375 2.046875l0 1.90625l-4.640625 0q-3.59375 0 -6.375 0.65625q-2.765625 0.640625 -4.640625 1.859375q-2.09375 1.34375 -3.15625 3.4375q-1.046875 2.078125 -1.046875 4.765625q0 2.09375 0.84375 3.890625q0.84375 1.78125 2.34375 3.0625q1.484375 1.28125 3.5625 2.0q2.09375 0.71875 4.578125 0.71875q1.53125 0 2.84375 -0.28125q1.3125 -0.28125 2.421875 -0.796875q1.078125 -0.46875 1.96875 -1.125q0.90625 -0.671875 1.59375 -1.421875q0.15625 0.875 0.359375 1.65625q0.21875 0.78125 0.515625 1.375zm-7.9375 -5.84375q-1.171875 0 -2.0625 -0.28125q-0.875 -0.28125 -1.46875 -0.765625q-0.609375 -0.5 -0.921875 -1.234375q-0.3125 -0.734375 -0.3125 -1.609375q0 -1.109375 0.421875 -2.046875q0.421875 -0.953125 1.28125 -1.640625q0.875 -0.65625 2.25 -1.03125q1.375 -0.375 3.328125 -0.375l4.25 0l0 5.578125q-0.359375 0.625 -0.984375 1.25q-0.625 0.609375 -1.5 1.078125q-0.875 0.484375 -1.953125 0.78125q-1.078125 0.296875 -2.328125 0.296875zm23.630981 -10.59375l0 0.625q0 3.53125 0.859375 6.546875q0.875 3.0 2.515625 5.1875q1.625 2.1875 3.96875 3.4375q2.359375 1.234375 5.3125 1.234375q2.734375 0 4.796875 -1.046875q2.0625 -1.046875 3.59375 -2.9375l0.421875 3.390625l7.515625 0l0 -46.0l-8.359375 0l0 16.5q-1.5 -1.671875 -3.4375 -2.578125q-1.921875 -0.921875 -4.46875 -0.921875q-3.015625 0 -5.375 1.203125q-2.34375 1.1875 -4.0 3.375q-1.640625 2.1875 -2.5 5.25q-0.84375 3.046875 -0.84375 6.734375zm8.3125 0.625l0 -0.625q0 -2.03125 0.359375 -3.8125q0.359375 -1.796875 1.140625 -3.140625q0.78125 -1.3125 2.015625 -2.078125q1.25 -0.765625 3.015625 -0.765625q2.125 0 3.53125 0.921875q1.40625 0.90625 2.25 2.546875l0 13.125q-0.84375 1.609375 -2.265625 2.546875q-1.421875 0.921875 -3.578125 0.921875q-1.765625 0 -3.0 -0.75q-1.21875 -0.75 -2.0 -2.0625q-0.765625 -1.28125 -1.125 -3.03125q-0.34375 -1.765625 -0.34375 -3.796875zm28.209106 -0.6875l0 0.625q0 3.5625 1.015625 6.578125q1.03125 3.015625 3.0 5.21875q1.953125 2.21875 4.8125 3.46875q2.859375 1.234375 6.515625 1.234375q3.625 0 6.46875 -1.234375q2.84375 -1.25 4.78125 -3.46875q1.953125 -2.203125 2.96875 -5.21875q1.015625 -3.015625 1.015625 -6.578125l0 -0.625q0 -3.53125 -1.015625 -6.53125q-1.015625 -3.015625 -2.96875 -5.234375q-1.96875 -2.21875 -4.8125 -3.46875q-2.84375 -1.265625 -6.5 -1.265625q-3.65625 0 -6.484375 1.265625q-2.828125 1.25 -4.78125 3.46875q-1.96875 2.21875 -3.0 5.234375q-1.015625 3.0 -1.015625 6.53125zm8.328125 0.625l0 -0.625q0 -1.96875 0.390625 -3.734375q0.390625 -1.78125 1.234375 -3.125q0.828125 -1.34375 2.140625 -2.125q1.328125 -0.78125 3.1875 -0.78125q1.890625 0 3.203125 0.78125q1.3125 0.78125 2.15625 2.125q0.8125 1.34375 1.1875 3.125q0.390625 1.765625 0.390625 3.734375l0 0.625q0 2.046875 -0.390625 3.828125q-0.375 1.78125 -1.1875 3.09375q-0.84375 1.34375 -2.15625 2.125q-1.3125 0.78125 -3.140625 0.78125q-1.890625 0 -3.234375 -0.78125q-1.328125 -0.78125 -2.15625 -2.125q-0.84375 -1.3125 -1.234375 -3.09375q-0.390625 -1.78125 -0.390625 -3.828125zm37.943512 -12.0625l0 -18.0625l-8.328125 0l0 46.0l8.328125 0l0 -23.390625q0.484375 -0.625 1.0625 -1.125q0.578125 -0.515625 1.296875 -0.875q0.78125 -0.421875 1.734375 -0.625q0.96875 -0.21875 2.078125 -0.21875q1.4375 0 2.5625 0.375q1.140625 0.375 1.953125 1.15625q0.8125 0.78125 1.25 2.046875q0.4375 1.25 0.4375 2.984375l0 19.671875l8.3125 0l0 -19.609375q0 -3.5625 -0.859375 -6.09375q-0.84375 -2.53125 -2.375 -4.15625q-1.515625 -1.609375 -3.65625 -2.375q-2.125 -0.765625 -4.65625 -0.765625q-1.75 0 -3.3125 0.515625q-1.546875 0.5 -2.828125 1.4375q-0.84375 0.59375 -1.609375 1.390625q-0.765625 0.78125 -1.390625 1.71875zm59.287262 3.296875q0.125 -4.171875 -0.875 -7.578125q-0.984375 -3.421875 -2.921875 -5.875q-1.984375 -2.421875 -4.828125 -3.75q-2.84375 -1.34375 -6.375 -1.34375q-4.078125 0 -7.46875 1.78125q-3.375 1.78125 -5.828125 4.875q-2.484375 3.109375 -3.90625 7.28125q-1.421875 4.15625 -1.578125 8.890625q-0.140625 4.765625 0.796875 8.578125q0.953125 3.8125 3.015625 6.484375q2.0625 2.65625 5.234375 4.09375q3.171875 1.4375 7.546875 1.4375q1.015625 0 2.125 -0.140625q1.109375 -0.125 2.21875 -0.421875q1.109375 -0.265625 2.109375 -0.6875q1.0 -0.421875 1.78125 -0.984375l-0.953125 -4.046875q-0.6875 0.359375 -1.546875 0.65625q-0.84375 0.296875 -1.78125 0.515625q-0.953125 0.234375 -1.953125 0.359375q-0.984375 0.109375 -1.90625 0.109375q-2.9375 0 -5.203125 -0.984375q-2.25 -0.984375 -3.71875 -3.0q-1.5 -1.96875 -2.203125 -4.953125q-0.703125 -3.0 -0.546875 -7.015625q0.109375 -3.984375 1.09375 -7.3125q1.0 -3.34375 2.734375 -5.78125q1.703125 -2.421875 4.140625 -3.78125q2.4375 -1.359375 5.5 -1.359375q2.6875 0 4.75 0.84375q2.078125 0.828125 3.453125 2.5625q1.375 1.734375 2.015625 4.421875q0.65625 2.671875 0.53125 6.328125q0 2.375 -0.265625 4.359375q-0.25 1.984375 -0.71875 3.421875q-0.484375 1.4375 -1.125 2.25q-0.640625 0.8125 -1.421875 0.8125q-0.296875 0 -0.609375 -0.0625q-0.296875 -0.0625 -0.5 -0.296875q-0.234375 -0.234375 -0.34375 -0.71875q-0.109375 -0.484375 -0.046875 -1.34375l1.28125 -15.78125q-0.921875 -0.9375 -2.421875 -1.609375q-1.5 -0.671875 -3.796875 -0.671875q-2.28125 0 -4.109375 0.953125q-1.828125 0.9375 -3.171875 2.671875q-1.34375 1.765625 -2.203125 4.21875q-0.84375 2.453125 -1.171875 5.515625q-0.25 2.609375 0.0625 4.734375q0.3125 2.125 1.15625 3.609375q0.84375 1.53125 2.1875 2.34375q1.34375 0.8125 3.140625 0.8125q0.90625 0 1.703125 -0.28125q0.8125 -0.296875 1.53125 -0.796875q0.484375 -0.359375 0.921875 -0.828125q0.453125 -0.46875 0.84375 -1.0q0.328125 0.625 0.75 1.140625q0.421875 0.5 0.9375 0.859375q0.625 0.484375 1.40625 0.734375q0.78125 0.234375 1.640625 0.234375q2.3125 0 3.953125 -1.359375q1.640625 -1.375 2.71875 -3.59375q1.0625 -2.1875 1.59375 -4.953125q0.546875 -2.765625 0.625 -5.578125zm-20.0 3.921875q0.21875 -2.125 0.671875 -3.75q0.46875 -1.640625 1.1875 -2.75q0.71875 -1.140625 1.71875 -1.703125q1.0 -0.578125 2.328125 -0.578125q0.359375 0 0.5625 0.03125q0.203125 0.03125 0.359375 0.0625l-1.140625 13.390625l-0.03125 0.390625q-0.265625 0.40625 -0.53125 0.71875q-0.265625 0.296875 -0.546875 0.5q-0.4375 0.328125 -0.90625 0.46875q-0.46875 0.125 -0.921875 0.125q-0.75 0 -1.3125 -0.4375q-0.5625 -0.453125 -0.921875 -1.375q-0.328125 -0.84375 -0.46875 -2.125q-0.140625 -1.296875 -0.046875 -2.96875zm25.162231 4.28125l0 0.625q0 3.53125 0.90625 6.546875q0.90625 3.0 2.625 5.1875q1.703125 2.1875 4.109375 3.4375q2.421875 1.234375 5.4375 1.234375q1.53125 0 2.859375 -0.328125q1.328125 -0.328125 2.4375 -0.921875q0.75 -0.421875 1.40625 -0.953125q0.671875 -0.546875 1.265625 -1.203125l0 1.859375q0 1.640625 -0.46875 2.953125q-0.46875 1.328125 -1.328125 2.21875q-0.953125 0.984375 -2.390625 1.5q-1.421875 0.515625 -3.234375 0.515625q-1.140625 0 -2.203125 -0.234375q-1.0625 -0.21875 -2.0625 -0.671875q-1.015625 -0.453125 -1.953125 -1.15625q-0.921875 -0.703125 -1.71875 -1.625l-3.75 5.0625q1.046875 1.34375 2.515625 2.3125q1.46875 0.984375 3.109375 1.609375q1.65625 0.625 3.328125 0.921875q1.671875 0.296875 3.140625 0.296875q3.421875 0 6.25 -0.90625q2.828125 -0.90625 4.859375 -2.6875q2.015625 -1.765625 3.140625 -4.34375q1.125 -2.5625 1.125 -5.859375l0 -31.359375l-7.578125 0l-0.328125 3.09375q-0.609375 -0.75 -1.328125 -1.359375q-0.71875 -0.625 -1.546875 -1.0625q-1.109375 -0.640625 -2.484375 -0.953125q-1.359375 -0.3125 -3.0 -0.3125q-3.0625 0 -5.484375 1.203125q-2.421875 1.1875 -4.125 3.375q-1.71875 2.1875 -2.625 5.25q-0.90625 3.046875 -0.90625 6.734375zm8.34375 0.625l0 -0.625q0 -2.03125 0.421875 -3.8125q0.421875 -1.796875 1.296875 -3.140625q0.828125 -1.3125 2.109375 -2.078125q1.296875 -0.765625 3.0625 -0.765625q0.953125 0 1.78125 0.1875q0.828125 0.171875 1.515625 0.5q0.8125 0.390625 1.4375 1.03125q0.625 0.625 1.078125 1.453125l0 13.71875q-0.421875 0.75 -1.0 1.359375q-0.5625 0.59375 -1.3125 1.0q-0.71875 0.390625 -1.609375 0.609375q-0.875 0.203125 -1.953125 0.203125q-1.765625 0 -3.0625 -0.75q-1.28125 -0.75 -2.109375 -2.0625q-0.84375 -1.28125 -1.25 -3.03125q-0.40625 -1.765625 -0.40625 -3.796875zm34.47473 -16.59375l-7.15625 0l0 32.40625l7.578125 0l0 -24.25q0.140625 -0.390625 0.3125 -0.71875q0.1875 -0.328125 0.4375 -0.578125q0.328125 -0.328125 0.734375 -0.5q0.421875 -0.1875 0.96875 -0.1875q0.46875 0 0.890625 0.140625q0.421875 0.125 0.75 0.453125q0.296875 0.34375 0.46875 0.9375q0.1875 0.59375 0.1875 1.53125l0 23.171875l7.34375 0l0 -23.890625q0 -0.359375 0 -0.5625q0 -0.21875 0 -0.28125q0.140625 -0.328125 0.34375 -0.578125q0.21875 -0.265625 0.5 -0.46875q0.328125 -0.21875 0.703125 -0.328125q0.375 -0.125 0.84375 -0.125q0.453125 0 0.890625 0.140625q0.4375 0.125 0.765625 0.453125q0.328125 0.359375 0.515625 0.96875q0.203125 0.59375 0.203125 1.53125l0 23.140625l7.5625 0l0 -23.125q0 -2.6875 -0.53125 -4.5625q-0.515625 -1.875 -1.4375 -3.0625q-0.953125 -1.171875 -2.234375 -1.703125q-1.265625 -0.546875 -2.734375 -0.546875q-1.171875 0 -2.15625 0.296875q-0.984375 0.296875 -1.765625 0.84375q-0.625 0.421875 -1.15625 1.0q-0.53125 0.578125 -0.9375 1.296875q-0.28125 -0.75 -0.65625 -1.328125q-0.375 -0.578125 -0.875 -1.0q-0.65625 -0.5625 -1.5625 -0.828125q-0.890625 -0.28125 -2.03125 -0.28125q-2.34375 0 -3.96875 1.21875q-1.625 1.203125 -2.5625 3.296875l-0.234375 -3.921875zm51.865356 32.40625l8.4375 0l0 -0.515625q-0.625 -1.21875 -0.953125 -2.921875q-0.328125 -1.71875 -0.328125 -4.3125l0 -13.90625q0 -2.8125 -1.046875 -4.953125q-1.046875 -2.140625 -2.90625 -3.546875q-1.859375 -1.40625 -4.390625 -2.125q-2.53125 -0.71875 -5.46875 -0.71875q-3.265625 0 -5.796875 0.828125q-2.515625 0.8125 -4.265625 2.21875q-1.765625 1.421875 -2.6875 3.28125q-0.90625 1.84375 -0.90625 3.90625l8.328125 0q0 -0.859375 0.25 -1.578125q0.265625 -0.71875 0.796875 -1.234375q0.609375 -0.5625 1.5625 -0.875q0.953125 -0.3125 2.28125 -0.3125q1.484375 0 2.609375 0.375q1.125 0.375 1.875 1.0625q0.71875 0.65625 1.078125 1.578125q0.359375 0.90625 0.359375 2.046875l0 1.90625l-4.640625 0q-3.59375 0 -6.375 0.65625q-2.765625 0.640625 -4.640625 1.859375q-2.09375 1.34375 -3.15625 3.4375q-1.046875 2.078125 -1.046875 4.765625q0 2.09375 0.84375 3.890625q0.84375 1.78125 2.34375 3.0625q1.484375 1.28125 3.5625 2.0q2.09375 0.71875 4.578125 0.71875q1.53125 0 2.84375 -0.28125q1.3125 -0.28125 2.421875 -0.796875q1.078125 -0.46875 1.96875 -1.125q0.90625 -0.671875 1.59375 -1.421875q0.15625 0.875 0.359375 1.65625q0.21875 0.78125 0.515625 1.375zm-7.9375 -5.84375q-1.171875 0 -2.0625 -0.28125q-0.875 -0.28125 -1.46875 -0.765625q-0.609375 -0.5 -0.921875 -1.234375q-0.3125 -0.734375 -0.3125 -1.609375q0 -1.109375 0.421875 -2.046875q0.421875 -0.953125 1.28125 -1.640625q0.875 -0.65625 2.25 -1.03125q1.375 -0.375 3.328125 -0.375l4.25 0l0 5.578125q-0.359375 0.625 -0.984375 1.25q-0.625 0.609375 -1.5 1.078125q-0.875 0.484375 -1.953125 0.78125q-1.078125 0.296875 -2.328125 0.296875zm26.709106 -26.5625l0 6.796875l9.21875 0l0 18.84375l-9.21875 0l0 6.765625l26.40625 0l0 -6.765625l-8.765625 0l0 -25.640625l-17.640625 0zm8.625 -8.296875q0 0.96875 0.34375 1.796875q0.34375 0.8125 0.96875 1.390625q0.640625 0.59375 1.515625 0.921875q0.890625 0.328125 1.96875 0.328125q2.203125 0 3.5 -1.234375q1.3125 -1.25 1.3125 -3.203125q0 -1.9375 -1.3125 -3.171875q-1.296875 -1.25 -3.5 -1.25q-1.078125 0 -1.96875 0.328125q-0.875 0.328125 -1.515625 0.890625q-0.625 0.609375 -0.96875 1.4375q-0.34375 0.8125 -0.34375 1.765625zm27.693481 -5.296875l0 6.796875l9.703125 0l0 32.4375l-9.703125 0l0 6.765625l27.40625 0l0 -6.765625l-9.28125 0l0 -39.234375l-18.125 0zm43.490356 41.171875q0 2.3125 1.546875 3.875q1.5625 1.546875 4.234375 1.546875q2.625 0 4.203125 -1.53125q1.578125 -1.546875 1.578125 -3.890625q0 -2.328125 -1.546875 -3.90625q-1.546875 -1.59375 -4.234375 -1.59375q-2.734375 0 -4.265625 1.609375q-1.515625 1.59375 -1.515625 3.890625zm42.72473 -1.21875q-2.0 0 -3.3125 -0.8125q-1.296875 -0.8125 -2.046875 -2.15625q-0.78125 -1.3125 -1.078125 -3.0625q-0.296875 -1.75 -0.296875 -3.640625l0 -0.90625q0 -1.84375 0.3125 -3.578125q0.3125 -1.75 1.09375 -3.09375q0.75 -1.34375 2.03125 -2.15625q1.296875 -0.8125 3.265625 -0.8125q1.359375 0 2.484375 0.46875q1.140625 0.46875 1.953125 1.234375q0.8125 0.78125 1.21875 1.859375q0.421875 1.078125 0.375 2.28125l7.84375 0q0.046875 -2.875 -0.96875 -5.1875q-1.015625 -2.328125 -2.84375 -3.984375q-1.859375 -1.609375 -4.40625 -2.5q-2.53125 -0.90625 -5.53125 -0.90625q-3.75 0 -6.578125 1.296875q-2.828125 1.28125 -4.734375 3.5q-1.921875 2.203125 -2.890625 5.1875q-0.953125 2.984375 -0.953125 6.390625l0 0.90625q0 3.40625 0.96875 6.390625q0.984375 2.984375 2.890625 5.203125q1.890625 2.203125 4.734375 3.484375q2.84375 1.265625 6.625 1.265625q2.78125 0 5.28125 -0.875q2.5 -0.890625 4.390625 -2.4375q1.890625 -1.5625 2.96875 -3.71875q1.09375 -2.15625 1.046875 -4.671875l-7.84375 0q0.046875 1.140625 -0.421875 2.078125q-0.453125 0.921875 -1.296875 1.578125q-0.828125 0.65625 -1.9375 1.015625q-1.109375 0.359375 -2.34375 0.359375zm21.318481 -10.453125l0 0.625q0 3.5625 1.015625 6.578125q1.03125 3.015625 3.0 5.21875q1.953125 2.21875 4.8125 3.46875q2.859375 1.234375 6.515625 1.234375q3.625 0 6.46875 -1.234375q2.84375 -1.25 4.78125 -3.46875q1.953125 -2.203125 2.96875 -5.21875q1.015625 -3.015625 1.015625 -6.578125l0 -0.625q0 -3.53125 -1.015625 -6.53125q-1.015625 -3.015625 -2.96875 -5.234375q-1.96875 -2.21875 -4.8125 -3.46875q-2.84375 -1.265625 -6.5 -1.265625q-3.65625 0 -6.484375 1.265625q-2.828125 1.25 -4.78125 3.46875q-1.96875 2.21875 -3.0 5.234375q-1.015625 3.0 -1.015625 6.53125zm8.328125 0.625l0 -0.625q0 -1.96875 0.390625 -3.734375q0.390625 -1.78125 1.234375 -3.125q0.828125 -1.34375 2.140625 -2.125q1.328125 -0.78125 3.1875 -0.78125q1.890625 0 3.203125 0.78125q1.3125 0.78125 2.15625 2.125q0.8125 1.34375 1.1875 3.125q0.390625 1.765625 0.390625 3.734375l0 0.625q0 2.046875 -0.390625 3.828125q-0.375 1.78125 -1.1875 3.09375q-0.84375 1.34375 -2.15625 2.125q-1.3125 0.78125 -3.140625 0.78125q-1.890625 0 -3.234375 -0.78125q-1.328125 -0.78125 -2.15625 -2.125q-0.84375 -1.3125 -1.234375 -3.09375q-0.390625 -1.78125 -0.390625 -3.828125zm34.802856 -16.53125l-7.15625 0l0 32.40625l7.578125 0l0 -24.25q0.140625 -0.390625 0.3125 -0.71875q0.1875 -0.328125 0.4375 -0.578125q0.328125 -0.328125 0.734375 -0.5q0.421875 -0.1875 0.96875 -0.1875q0.46875 0 0.890625 0.140625q0.421875 0.125 0.75 0.453125q0.296875 0.34375 0.46875 0.9375q0.1875 0.59375 0.1875 1.53125l0 23.171875l7.34375 0l0 -23.890625q0 -0.359375 0 -0.5625q0 -0.21875 0 -0.28125q0.140625 -0.328125 0.34375 -0.578125q0.21875 -0.265625 0.5 -0.46875q0.328125 -0.21875 0.703125 -0.328125q0.375 -0.125 0.84375 -0.125q0.453125 0 0.890625 0.140625q0.4375 0.125 0.765625 0.453125q0.328125 0.359375 0.515625 0.96875q0.203125 0.59375 0.203125 1.53125l0 23.140625l7.5625 0l0 -23.125q0 -2.6875 -0.53125 -4.5625q-0.515625 -1.875 -1.4375 -3.0625q-0.953125 -1.171875 -2.234375 -1.703125q-1.265625 -0.546875 -2.734375 -0.546875q-1.171875 0 -2.15625 0.296875q-0.984375 0.296875 -1.765625 0.84375q-0.625 0.421875 -1.15625 1.0q-0.53125 0.578125 -0.9375 1.296875q-0.28125 -0.75 -0.65625 -1.328125q-0.375 -0.578125 -0.875 -1.0q-0.65625 -0.5625 -1.5625 -0.828125q-0.890625 -0.28125 -2.03125 -0.28125q-2.34375 0 -3.96875 1.21875q-1.625 1.203125 -2.5625 3.296875l-0.234375 -3.921875z" fill-rule="nonzero"/></g></svg>