<svg width="605" height="144" viewBox="0 0 605 144" fill="none" xmlns="http://www.w3.org/2000/svg">
<path d="M11.125 24.9062H5.78125V45.5H0V0H5.78125V20.1875H10.6562L24.5 0H31.125L15.6562 22.0312L32.4062 45.5H25.3125L11.125 24.9062ZM36.9688 28.2812C36.9688 25.8438 37.3229 23.5833 38.0312 21.5C38.7396 19.3958 39.7604 17.5729 41.0938 16.0312C42.4062 14.4896 44.0104 13.2812 45.9062 12.4062C47.8021 11.5104 49.9375 11.0625 52.3125 11.0625C54.7083 11.0625 56.8542 11.5104 58.75 12.4062C60.6667 13.2812 62.2917 14.4896 63.625 16.0312C64.9375 17.5729 65.9479 19.3958 66.6562 21.5C67.3646 23.5833 67.7188 25.8438 67.7188 28.2812V28.9688C67.7188 31.4062 67.3646 33.6667 66.6562 35.75C65.9479 37.8333 64.9375 39.6458 63.625 41.1875C62.2917 42.7292 60.6771 43.9375 58.7812 44.8125C56.8854 45.6875 54.75 46.125 52.375 46.125C49.9792 46.125 47.8229 45.6875 45.9062 44.8125C44.0104 43.9375 42.4062 42.7292 41.0938 41.1875C39.7604 39.6458 38.7396 37.8333 38.0312 35.75C37.3229 33.6667 36.9688 31.4062 36.9688 28.9688V28.2812ZM42.75 28.9688C42.75 30.6354 42.9479 32.2292 43.3438 33.75C43.7396 35.25 44.3438 36.5729 45.1562 37.7188C45.9479 38.8646 46.9479 39.7708 48.1562 40.4375C49.3646 41.1042 50.7708 41.4375 52.375 41.4375C53.9583 41.4375 55.3438 41.1042 56.5312 40.4375C57.7396 39.7708 58.75 38.8646 59.5625 37.7188C60.3542 36.5729 60.9479 35.25 61.3438 33.75C61.7396 32.2292 61.9375 30.6354 61.9375 28.9688V28.2812C61.9375 26.6354 61.7292 25.0625 61.3125 23.5625C60.9167 22.0417 60.3229 20.7083 59.5312 19.5625C58.7188 18.4167 57.7083 17.5104 56.5 16.8438C55.3125 16.1562 53.9167 15.8125 52.3125 15.8125C50.7083 15.8125 49.3125 16.1562 48.125 16.8438C46.9375 17.5104 45.9479 18.4167 45.1562 19.5625C44.3438 20.7083 43.7396 22.0417 43.3438 23.5625C42.9479 25.0625 42.75 26.6354 42.75 28.2812V28.9688ZM90.4688 37.8438L97.6562 11.6875H104.875V45.5H99.0938V24.6562L92.4688 45.5H88.4688L81.6562 23.9062V45.5H75.875V11.6875H83.3438L90.4688 37.8438ZM143.25 45.5H137.469V16.4688H120.969V45.5H115.188V11.6875H143.25V45.5ZM157.781 26.0312H161.844C161.99 23.9062 162.323 21.9375 162.844 20.125C163.365 18.2917 164.094 16.6979 165.031 15.3438C165.969 14.0104 167.104 12.9688 168.438 12.2188C169.771 11.4479 171.323 11.0625 173.094 11.0625C175.031 11.0625 176.719 11.5104 178.156 12.4062C179.594 13.3021 180.781 14.5312 181.719 16.0938C182.656 17.6562 183.354 19.4896 183.812 21.5938C184.271 23.6771 184.5 25.9062 184.5 28.2812V28.9688C184.5 31.3438 184.271 33.5833 183.812 35.6875C183.354 37.7708 182.667 39.5833 181.75 41.125C180.812 42.6667 179.625 43.8854 178.188 44.7812C176.771 45.6771 175.094 46.125 173.156 46.125C171.344 46.125 169.75 45.7396 168.375 44.9688C167.021 44.1771 165.875 43.0938 164.938 41.7188C164 40.3438 163.271 38.7188 162.75 36.8438C162.25 34.9688 161.938 32.9479 161.812 30.7812H157.781V45.5H152V11.6875H157.781V26.0312ZM167.594 28.9688C167.594 30.5938 167.677 32.1667 167.844 33.6875C168.01 35.1875 168.312 36.5104 168.75 37.6562C169.167 38.8021 169.729 39.7188 170.438 40.4062C171.146 41.0938 172.052 41.4375 173.156 41.4375C174.24 41.4375 175.135 41.0938 175.844 40.4062C176.573 39.7188 177.146 38.8021 177.562 37.6562C177.979 36.5104 178.271 35.1875 178.438 33.6875C178.625 32.1667 178.719 30.5938 178.719 28.9688V28.2812C178.719 26.6562 178.625 25.0938 178.438 23.5938C178.271 22.0938 177.979 20.7604 177.562 19.5938C177.125 18.4479 176.542 17.5312 175.812 16.8438C175.104 16.1562 174.198 15.8125 173.094 15.8125C172.01 15.8125 171.115 16.1562 170.406 16.8438C169.698 17.5312 169.135 18.4479 168.719 19.5938C168.302 20.7604 168.01 22.0938 167.844 23.5938C167.677 25.0938 167.594 26.6562 167.594 28.2812V28.9688ZM222.75 16.375H209.25V45.5H203.438V16.375H190.156V11.6875H222.75V16.375ZM236.5 45.5V16.4375H227.125V11.6875H242.281V24.5H248.531C250.531 24.5 252.312 24.7604 253.875 25.2812C255.438 25.8021 256.75 26.5208 257.812 27.4375C258.875 28.3542 259.677 29.4479 260.219 30.7188C260.781 31.9896 261.062 33.375 261.062 34.875C261.062 36.375 260.781 37.7708 260.219 39.0625C259.677 40.3542 258.875 41.4688 257.812 42.4062C256.75 43.3646 255.438 44.125 253.875 44.6875C252.312 45.2292 250.531 45.5 248.531 45.5H236.5ZM242.281 29.2188V40.7812H248.531C249.74 40.7812 250.76 40.625 251.594 40.3125C252.448 40 253.146 39.5729 253.688 39.0312C254.229 38.5104 254.625 37.9062 254.875 37.2188C255.125 36.5312 255.25 35.8229 255.25 35.0938C255.25 34.3854 255.125 33.6875 254.875 33C254.625 32.2917 254.229 31.6562 253.688 31.0938C253.146 30.5521 252.448 30.1042 251.594 29.75C250.74 29.3958 249.719 29.2188 248.531 29.2188H242.281ZM269.188 58.5V11.6875H274.469L274.75 15.375C275.208 14.7917 275.708 14.2708 276.25 13.8125C276.792 13.3333 277.375 12.9271 278 12.5938C278.875 12.0938 279.844 11.7188 280.906 11.4688C281.99 11.1979 283.146 11.0625 284.375 11.0625C286.542 11.0625 288.458 11.4896 290.125 12.3438C291.792 13.1979 293.188 14.3854 294.312 15.9062C295.438 17.4271 296.292 19.25 296.875 21.375C297.458 23.4792 297.75 25.7917 297.75 28.3125V28.9688C297.75 31.3854 297.458 33.6458 296.875 35.75C296.292 37.8333 295.438 39.6458 294.312 41.1875C293.188 42.7292 291.792 43.9375 290.125 44.8125C288.479 45.6875 286.594 46.125 284.469 46.125C283.177 46.125 281.969 45.9896 280.844 45.7188C279.74 45.4479 278.74 45.0625 277.844 44.5625C277.302 44.25 276.792 43.9062 276.312 43.5312C275.833 43.1354 275.385 42.7083 274.969 42.25V58.5H269.188ZM291.969 28.3125C291.969 26.6667 291.781 25.1042 291.406 23.625C291.052 22.125 290.5 20.8021 289.75 19.6562C288.979 18.5312 288.01 17.6354 286.844 16.9688C285.677 16.3021 284.281 15.9688 282.656 15.9688C281.76 15.9688 280.927 16.0729 280.156 16.2812C279.406 16.4896 278.729 16.7917 278.125 17.1875C277.458 17.5833 276.865 18.0729 276.344 18.6562C275.823 19.2396 275.365 19.8854 274.969 20.5938V36.875C275.323 37.5 275.729 38.0833 276.188 38.625C276.646 39.1667 277.167 39.625 277.75 40C278.417 40.4375 279.156 40.7812 279.969 41.0312C280.802 41.2812 281.719 41.4062 282.719 41.4062C284.323 41.4062 285.708 41.0729 286.875 40.4062C288.042 39.7188 289 38.8021 289.75 37.6562C290.5 36.5104 291.052 35.1875 291.406 33.6875C291.781 32.1875 291.969 30.6146 291.969 28.9688V28.3125ZM335.438 45.5H329.656V31.0625H313.156V45.5H307.375V11.6875H313.156V26.3438H329.656V11.6875H335.438V45.5ZM368.094 11.6875H373.875V45.5H368.094V20.5625L351.562 45.5H345.812V11.6875H351.562V36.6562L368.094 11.6875ZM451.5 45.5H446.031V24.4688H427.375V45.5H421.938V0H427.375V19.5625H446.031V0H451.5V45.5ZM483.625 45.5C483.396 45.0625 483.208 44.5208 483.062 43.875C482.938 43.2083 482.844 42.5208 482.781 41.8125C482.198 42.3958 481.542 42.9479 480.812 43.4688C480.104 43.9896 479.323 44.4479 478.469 44.8438C477.594 45.2396 476.667 45.5521 475.688 45.7812C474.708 46.0104 473.667 46.125 472.562 46.125C470.771 46.125 469.146 45.8646 467.688 45.3438C466.25 44.8229 465.031 44.1146 464.031 43.2188C463.01 42.3438 462.219 41.3021 461.656 40.0938C461.115 38.8646 460.844 37.5417 460.844 36.125C460.844 34.2708 461.208 32.6458 461.938 31.25C462.688 29.8542 463.74 28.6875 465.094 27.75C466.448 26.8333 468.073 26.1458 469.969 25.6875C471.885 25.2292 474.021 25 476.375 25H482.688V22.3438C482.688 21.3229 482.5 20.4062 482.125 19.5938C481.75 18.7812 481.219 18.0833 480.531 17.5C479.844 16.9375 479 16.5 478 16.1875C477.021 15.875 475.917 15.7188 474.688 15.7188C473.542 15.7188 472.51 15.8646 471.594 16.1562C470.698 16.4479 469.938 16.8333 469.312 17.3125C468.688 17.7917 468.198 18.3646 467.844 19.0312C467.51 19.6771 467.344 20.3542 467.344 21.0625H461.531C461.552 19.8333 461.865 18.625 462.469 17.4375C463.094 16.25 463.99 15.1771 465.156 14.2188C466.302 13.2812 467.698 12.5208 469.344 11.9375C471.01 11.3542 472.896 11.0625 475 11.0625C476.917 11.0625 478.698 11.3021 480.344 11.7812C481.99 12.2396 483.417 12.9375 484.625 13.875C485.812 14.8333 486.75 16.0208 487.438 17.4375C488.125 18.8542 488.469 20.5104 488.469 22.4062V38.125C488.469 39.25 488.573 40.4479 488.781 41.7188C488.99 42.9688 489.281 44.0625 489.656 45V45.5H483.625ZM473.406 41.0938C474.531 41.0938 475.583 40.9479 476.562 40.6562C477.542 40.3646 478.438 39.9792 479.25 39.5C480.042 39.0208 480.729 38.4792 481.312 37.875C481.896 37.25 482.354 36.6042 482.688 35.9375V29.0938H477.312C475.312 29.0938 473.562 29.2708 472.062 29.625C470.583 29.9583 469.406 30.4792 468.531 31.1875C467.906 31.6875 467.427 32.2812 467.094 32.9688C466.781 33.6562 466.625 34.4375 466.625 35.3125C466.625 36.1458 466.76 36.9167 467.031 37.625C467.323 38.3333 467.75 38.9375 468.312 39.4375C468.875 39.9583 469.583 40.3646 470.438 40.6562C471.292 40.9479 472.281 41.0938 473.406 41.0938ZM502.562 59.1562C502.021 59.1562 501.385 59.0938 500.656 58.9688C499.927 58.8438 499.375 58.7396 499 58.6562L499.938 53.9375C500.458 53.9792 500.969 54.0104 501.469 54.0312C501.99 54.0729 502.396 54.0938 502.688 54.0938C503.479 54.0938 504.198 53.875 504.844 53.4375C505.51 53 506.104 52.4792 506.625 51.875C507.125 51.2708 507.552 50.6458 507.906 50C508.281 49.3542 508.573 48.8229 508.781 48.4062L511.094 43.9062L496.531 11.6875H503L512.281 33.5L513.781 37.5938L515.375 33.625L524.094 11.6875H530.562L513.406 50.7188C513.01 51.5938 512.5 52.5208 511.875 53.5C511.271 54.4792 510.531 55.3854 509.656 56.2188C508.781 57.0521 507.76 57.75 506.594 58.3125C505.427 58.875 504.083 59.1562 502.562 59.1562ZM549.25 31.0938H543.75V45.5H537.969V11.6875H543.75V26H548.75L561.344 11.6875H568.375L553.875 27.9688L569.5 45.5H562.156L549.25 31.0938ZM598.719 11.6875H604.5V45.5H598.719V20.5625L582.188 45.5H576.438V11.6875H582.188V36.6562L598.719 11.6875ZM95.0312 119.5H100.812C100.812 120.312 101.052 121.083 101.531 121.812C102.01 122.521 102.677 123.146 103.531 123.688C104.385 124.25 105.396 124.698 106.562 125.031C107.729 125.344 108.99 125.5 110.344 125.5C111.677 125.5 112.896 125.365 114 125.094C115.104 124.802 116.052 124.406 116.844 123.906C117.615 123.406 118.208 122.823 118.625 122.156C119.062 121.49 119.281 120.771 119.281 120C119.281 119.042 119.083 118.229 118.688 117.562C118.292 116.875 117.719 116.312 116.969 115.875C116.594 115.667 116.177 115.49 115.719 115.344C115.26 115.198 114.771 115.073 114.25 114.969C113.729 114.865 113.167 114.792 112.562 114.75C111.958 114.708 111.333 114.688 110.688 114.688H103.156V109.812H110.688C111.354 109.812 111.979 109.792 112.562 109.75C113.146 109.688 113.677 109.604 114.156 109.5C114.76 109.375 115.302 109.208 115.781 109C116.281 108.792 116.719 108.552 117.094 108.281C117.615 107.885 118.01 107.406 118.281 106.844C118.552 106.281 118.688 105.646 118.688 104.938C118.688 104.229 118.5 103.562 118.125 102.938C117.771 102.312 117.25 101.76 116.562 101.281C115.854 100.823 114.979 100.458 113.938 100.188C112.896 99.9167 111.698 99.7812 110.344 99.7812C109.135 99.7812 107.99 99.9167 106.906 100.188C105.823 100.458 104.875 100.823 104.062 101.281C103.229 101.76 102.562 102.333 102.062 103C101.583 103.646 101.344 104.354 101.344 105.125H95.5625C95.5833 103.562 95.9896 102.167 96.7812 100.938C97.5938 99.6875 98.6771 98.625 100.031 97.75C101.365 96.8958 102.917 96.2396 104.688 95.7812C106.479 95.3229 108.365 95.0938 110.344 95.0938C112.427 95.0938 114.333 95.3021 116.062 95.7188C117.792 96.1354 119.281 96.75 120.531 97.5625C121.781 98.3958 122.75 99.4271 123.438 100.656C124.125 101.865 124.469 103.281 124.469 104.906C124.469 105.906 124.24 106.844 123.781 107.719C123.323 108.594 122.677 109.385 121.844 110.094C121.385 110.49 120.854 110.865 120.25 111.219C119.646 111.552 119 111.854 118.312 112.125C119.292 112.417 120.167 112.781 120.938 113.219C121.729 113.635 122.417 114.125 123 114.688C123.688 115.375 124.208 116.167 124.562 117.062C124.938 117.938 125.125 118.917 125.125 120C125.125 121.625 124.74 123.062 123.969 124.312C123.219 125.562 122.177 126.615 120.844 127.469C119.51 128.344 117.948 129 116.156 129.438C114.365 129.875 112.427 130.094 110.344 130.094C108.302 130.094 106.302 129.854 104.344 129.375C102.385 128.896 100.677 128.146 99.2188 127.125C97.9896 126.292 96.9792 125.24 96.1875 123.969C95.4167 122.677 95.0312 121.188 95.0312 119.5ZM156.906 129.5C156.677 129.062 156.49 128.521 156.344 127.875C156.219 127.208 156.125 126.521 156.062 125.812C155.479 126.396 154.823 126.948 154.094 127.469C153.385 127.99 152.604 128.448 151.75 128.844C150.875 129.24 149.948 129.552 148.969 129.781C147.99 130.01 146.948 130.125 145.844 130.125C144.052 130.125 142.427 129.865 140.969 129.344C139.531 128.823 138.312 128.115 137.312 127.219C136.292 126.344 135.5 125.302 134.938 124.094C134.396 122.865 134.125 121.542 134.125 120.125C134.125 118.271 134.49 116.646 135.219 115.25C135.969 113.854 137.021 112.688 138.375 111.75C139.729 110.833 141.354 110.146 143.25 109.688C145.167 109.229 147.302 109 149.656 109H155.969V106.344C155.969 105.323 155.781 104.406 155.406 103.594C155.031 102.781 154.5 102.083 153.812 101.5C153.125 100.938 152.281 100.5 151.281 100.188C150.302 99.875 149.198 99.7188 147.969 99.7188C146.823 99.7188 145.792 99.8646 144.875 100.156C143.979 100.448 143.219 100.833 142.594 101.312C141.969 101.792 141.479 102.365 141.125 103.031C140.792 103.677 140.625 104.354 140.625 105.062H134.812C134.833 103.833 135.146 102.625 135.75 101.438C136.375 100.25 137.271 99.1771 138.438 98.2188C139.583 97.2812 140.979 96.5208 142.625 95.9375C144.292 95.3542 146.177 95.0625 148.281 95.0625C150.198 95.0625 151.979 95.3021 153.625 95.7812C155.271 96.2396 156.698 96.9375 157.906 97.875C159.094 98.8333 160.031 100.021 160.719 101.438C161.406 102.854 161.75 104.51 161.75 106.406V122.125C161.75 123.25 161.854 124.448 162.062 125.719C162.271 126.969 162.562 128.062 162.938 129V129.5H156.906ZM146.688 125.094C147.812 125.094 148.865 124.948 149.844 124.656C150.823 124.365 151.719 123.979 152.531 123.5C153.323 123.021 154.01 122.479 154.594 121.875C155.177 121.25 155.635 120.604 155.969 119.938V113.094H150.594C148.594 113.094 146.844 113.271 145.344 113.625C143.865 113.958 142.688 114.479 141.812 115.188C141.188 115.688 140.708 116.281 140.375 116.969C140.062 117.656 139.906 118.438 139.906 119.312C139.906 120.146 140.042 120.917 140.312 121.625C140.604 122.333 141.031 122.938 141.594 123.438C142.156 123.958 142.865 124.365 143.719 124.656C144.573 124.948 145.562 125.094 146.688 125.094ZM214.281 143.156C213.74 143.156 213.104 143.094 212.375 142.969C211.646 142.844 211.094 142.74 210.719 142.656L211.656 137.938C212.177 137.979 212.688 138.01 213.188 138.031C213.708 138.073 214.115 138.094 214.406 138.094C215.198 138.094 215.917 137.875 216.562 137.438C217.229 137 217.823 136.479 218.344 135.875C218.844 135.271 219.271 134.646 219.625 134C220 133.354 220.292 132.823 220.5 132.406L222.812 127.906L208.25 95.6875H214.719L224 117.5L225.5 121.594L227.094 117.625L235.812 95.6875H242.281L225.125 134.719C224.729 135.594 224.219 136.521 223.594 137.5C222.99 138.479 222.25 139.385 221.375 140.219C220.5 141.052 219.479 141.75 218.312 142.312C217.146 142.875 215.802 143.156 214.281 143.156ZM277.781 129.5H272V117.156C270.583 117.51 269.115 117.781 267.594 117.969C266.094 118.156 264.458 118.25 262.688 118.25C260.604 118.25 258.719 117.99 257.031 117.469C255.344 116.948 253.906 116.156 252.719 115.094C251.51 114.052 250.583 112.74 249.938 111.156C249.292 109.552 248.969 107.677 248.969 105.531V95.6875H254.75V105.531C254.75 106.823 254.906 107.948 255.219 108.906C255.531 109.865 255.969 110.667 256.531 111.312C257.198 112.062 258.052 112.615 259.094 112.969C260.135 113.323 261.333 113.5 262.688 113.5C263.646 113.5 264.583 113.469 265.5 113.406C266.417 113.344 267.312 113.25 268.188 113.125C268.833 113.042 269.469 112.938 270.094 112.812C270.74 112.688 271.375 112.552 272 112.406V95.6875H277.781V129.5ZM303.375 130.125C301 130.125 298.812 129.719 296.812 128.906C294.833 128.094 293.135 126.958 291.719 125.5C290.302 124.042 289.198 122.312 288.406 120.312C287.615 118.312 287.219 116.135 287.219 113.781V112.469C287.219 109.74 287.656 107.302 288.531 105.156C289.406 102.99 290.573 101.156 292.031 99.6562C293.469 98.1771 295.104 97.0417 296.938 96.25C298.792 95.4583 300.688 95.0625 302.625 95.0625C305.062 95.0625 307.188 95.4896 309 96.3438C310.833 97.1771 312.354 98.3333 313.562 99.8125C314.771 101.312 315.667 103.073 316.25 105.094C316.854 107.115 317.156 109.302 317.156 111.656V114.25H293V114.469C293.146 116.115 293.469 117.562 293.969 118.812C294.49 120.062 295.198 121.167 296.094 122.125C297.01 123.146 298.115 123.948 299.406 124.531C300.698 125.115 302.125 125.406 303.688 125.406C305.75 125.406 307.583 124.99 309.188 124.156C310.792 123.323 312.125 122.219 313.188 120.844L316.719 123.594C315.594 125.302 313.906 126.823 311.656 128.156C309.427 129.469 306.667 130.125 303.375 130.125ZM302.625 99.8125C301.458 99.8125 300.354 100.031 299.312 100.469C298.271 100.885 297.333 101.5 296.5 102.312C295.667 103.146 294.958 104.167 294.375 105.375C293.812 106.562 293.417 107.938 293.188 109.5H311.375V109.219C311.375 108.177 311.177 107.062 310.781 105.875C310.385 104.667 309.833 103.625 309.125 102.75C308.417 101.875 307.521 101.167 306.438 100.625C305.375 100.083 304.104 99.8125 302.625 99.8125ZM354.656 129.5H348.875V115.062H332.375V129.5H326.594V95.6875H332.375V110.344H348.875V95.6875H354.656V129.5ZM387.312 95.6875H393.094V129.5H387.312V104.562L370.781 129.5H365.031V95.6875H370.781V120.656L387.312 95.6875ZM403.625 95.6875H409.406V124.781H424.969V95.6875H430.781V124.781H434.812L434.25 139.531H429.062V129.5H403.625V95.6875ZM464.188 95.6875H469.969V129.5H464.188V104.562L447.656 129.5H441.906V95.6875H447.656V120.656L464.188 95.6875ZM496.75 114.781H490.938V84H496.75V114.781ZM490.375 126.469C490.375 125.469 490.667 124.635 491.25 123.969C491.854 123.302 492.75 122.969 493.938 122.969C495.125 122.969 496.021 123.302 496.625 123.969C497.25 124.635 497.562 125.469 497.562 126.469C497.562 127.427 497.25 128.229 496.625 128.875C496.021 129.521 495.125 129.844 493.938 129.844C492.75 129.844 491.854 129.521 491.25 128.875C490.667 128.229 490.375 127.427 490.375 126.469Z" fill="#FF0000"/>
</svg>
