<svg width="423" height="63" viewBox="0 0 423 63" fill="none" xmlns="http://www.w3.org/2000/svg">
<rect x="0.5" y="0.5" width="422" height="62" rx="8.5" fill="#FF0000" stroke="#FF0000"/>
<path d="M94.125 42L87.1719 25.0938H90.1406L94.9844 37.8438L95.25 38.8906L95.5312 37.8438L100.266 25.0938H103.219L96.3281 42H94.125ZM113.344 42L106.391 25.0938H109.359L114.203 37.8438L114.469 38.8906L114.75 37.8438L119.484 25.0938H122.438L115.547 42H113.344ZM127.25 18H135.891V39.5H141.406V42H127.25V39.5H133V20.5156H127.25V18ZM157.125 42C157.01 41.7812 156.917 41.5104 156.844 41.1875C156.781 40.8542 156.734 40.5104 156.703 40.1562C156.411 40.4479 156.083 40.724 155.719 40.9844C155.365 41.2448 154.974 41.474 154.547 41.6719C154.109 41.8698 153.646 42.026 153.156 42.1406C152.667 42.2552 152.146 42.3125 151.594 42.3125C150.698 42.3125 149.885 42.1823 149.156 41.9219C148.438 41.6615 147.828 41.3073 147.328 40.8594C146.818 40.4219 146.422 39.901 146.141 39.2969C145.87 38.6823 145.734 38.0208 145.734 37.3125C145.734 36.3854 145.917 35.5729 146.281 34.875C146.656 34.1771 147.182 33.5938 147.859 33.125C148.536 32.6667 149.349 32.3229 150.297 32.0938C151.255 31.8646 152.323 31.75 153.5 31.75H156.656V30.4219C156.656 29.9115 156.562 29.4531 156.375 29.0469C156.188 28.6406 155.922 28.2917 155.578 28C155.234 27.7188 154.812 27.5 154.312 27.3438C153.823 27.1875 153.271 27.1094 152.656 27.1094C152.083 27.1094 151.568 27.1823 151.109 27.3281C150.661 27.474 150.281 27.6667 149.969 27.9062C149.656 28.1458 149.411 28.4323 149.234 28.7656C149.068 29.0885 148.984 29.4271 148.984 29.7812H146.078C146.089 29.1667 146.245 28.5625 146.547 27.9688C146.859 27.375 147.307 26.8385 147.891 26.3594C148.464 25.8906 149.161 25.5104 149.984 25.2188C150.818 24.9271 151.76 24.7812 152.812 24.7812C153.771 24.7812 154.661 24.901 155.484 25.1406C156.307 25.3698 157.021 25.7188 157.625 26.1875C158.219 26.6667 158.688 27.2604 159.031 27.9688C159.375 28.6771 159.547 29.5052 159.547 30.4531V38.3125C159.547 38.875 159.599 39.474 159.703 40.1094C159.807 40.7344 159.953 41.2812 160.141 41.75V42H157.125ZM152.016 39.7969C152.578 39.7969 153.104 39.724 153.594 39.5781C154.083 39.4323 154.531 39.2396 154.938 39C155.333 38.7604 155.677 38.4896 155.969 38.1875C156.26 37.875 156.49 37.5521 156.656 37.2188V33.7969H153.969C152.969 33.7969 152.094 33.8854 151.344 34.0625C150.604 34.2292 150.016 34.4896 149.578 34.8438C149.266 35.0938 149.026 35.3906 148.859 35.7344C148.703 36.0781 148.625 36.4688 148.625 36.9062C148.625 37.3229 148.693 37.7083 148.828 38.0625C148.974 38.4167 149.188 38.7188 149.469 38.9688C149.75 39.2292 150.104 39.4323 150.531 39.5781C150.958 39.724 151.453 39.7969 152.016 39.7969ZM164.688 33.4062C164.688 32.1458 164.844 30.9896 165.156 29.9375C165.479 28.875 165.938 27.9635 166.531 27.2031C167.115 26.4427 167.823 25.849 168.656 25.4219C169.49 24.9948 170.422 24.7812 171.453 24.7812C172.464 24.7812 173.344 24.9531 174.094 25.2969C174.854 25.6302 175.51 26.1198 176.062 26.7656V18H178.953V42H176.297L176.172 40.2188C175.609 40.9062 174.938 41.4271 174.156 41.7812C173.375 42.1354 172.464 42.3125 171.422 42.3125C170.401 42.3125 169.474 42.0938 168.641 41.6562C167.818 41.2188 167.115 40.6146 166.531 39.8438C165.948 39.0729 165.495 38.1667 165.172 37.125C164.849 36.0729 164.688 34.9427 164.688 33.7344V33.4062ZM167.578 33.7344C167.578 34.5573 167.667 35.3385 167.844 36.0781C168.021 36.8177 168.297 37.4688 168.672 38.0312C169.036 38.5938 169.505 39.0417 170.078 39.375C170.651 39.6979 171.339 39.8594 172.141 39.8594C173.109 39.8594 173.911 39.6406 174.547 39.2031C175.182 38.7656 175.688 38.1771 176.062 37.4375V29.5938C175.688 28.9062 175.182 28.3438 174.547 27.9062C173.911 27.4583 173.12 27.2344 172.172 27.2344C171.359 27.2344 170.661 27.401 170.078 27.7344C169.505 28.0677 169.036 28.5156 168.672 29.0781C168.297 29.651 168.021 30.3125 167.844 31.0625C167.667 31.8021 167.578 32.5833 167.578 33.4062V33.7344ZM183.641 33.3906C183.641 32.1719 183.818 31.0417 184.172 30C184.526 28.9479 185.036 28.0365 185.703 27.2656C186.359 26.4948 187.161 25.8906 188.109 25.4531C189.057 25.0052 190.125 24.7812 191.312 24.7812C192.51 24.7812 193.583 25.0052 194.531 25.4531C195.49 25.8906 196.302 26.4948 196.969 27.2656C197.625 28.0365 198.13 28.9479 198.484 30C198.839 31.0417 199.016 32.1719 199.016 33.3906V33.7344C199.016 34.9531 198.839 36.0833 198.484 37.125C198.13 38.1667 197.625 39.0729 196.969 39.8438C196.302 40.6146 195.495 41.2188 194.547 41.6562C193.599 42.0938 192.531 42.3125 191.344 42.3125C190.146 42.3125 189.068 42.0938 188.109 41.6562C187.161 41.2188 186.359 40.6146 185.703 39.8438C185.036 39.0729 184.526 38.1667 184.172 37.125C183.818 36.0833 183.641 34.9531 183.641 33.7344V33.3906ZM186.531 33.7344C186.531 34.5677 186.63 35.3646 186.828 36.125C187.026 36.875 187.328 37.5365 187.734 38.1094C188.13 38.6823 188.63 39.1354 189.234 39.4688C189.839 39.8021 190.542 39.9688 191.344 39.9688C192.135 39.9688 192.828 39.8021 193.422 39.4688C194.026 39.1354 194.531 38.6823 194.938 38.1094C195.333 37.5365 195.63 36.875 195.828 36.125C196.026 35.3646 196.125 34.5677 196.125 33.7344V33.3906C196.125 32.5677 196.021 31.7812 195.812 31.0312C195.615 30.2708 195.318 29.6042 194.922 29.0312C194.516 28.4583 194.01 28.0052 193.406 27.6719C192.812 27.3281 192.115 27.1562 191.312 27.1562C190.51 27.1562 189.812 27.3281 189.219 27.6719C188.625 28.0052 188.13 28.4583 187.734 29.0312C187.328 29.6042 187.026 30.2708 186.828 31.0312C186.63 31.7812 186.531 32.5677 186.531 33.3906V33.7344ZM206.562 27.6094C206.792 27.2656 207.047 26.9531 207.328 26.6719C207.609 26.3802 207.906 26.125 208.219 25.9062C208.719 25.5417 209.266 25.2656 209.859 25.0781C210.464 24.8906 211.104 24.7917 211.781 24.7812C212.667 24.7812 213.469 24.9115 214.188 25.1719C214.917 25.4219 215.536 25.8177 216.047 26.3594C216.557 26.901 216.948 27.5885 217.219 28.4219C217.5 29.2448 217.641 30.224 217.641 31.3594V42H214.75V31.3281C214.75 30.6615 214.672 30.0781 214.516 29.5781C214.359 29.0677 214.13 28.6458 213.828 28.3125C213.505 27.9479 213.099 27.6771 212.609 27.5C212.12 27.3125 211.557 27.224 210.922 27.2344C210.401 27.2344 209.906 27.3073 209.438 27.4531C208.969 27.599 208.536 27.8073 208.141 28.0781C207.828 28.2865 207.536 28.5312 207.266 28.8125C207.005 29.0833 206.771 29.3854 206.562 29.7188V42H203.672V18H206.562V27.6094ZM238.281 29.6719C238.25 30.5052 238.151 31.3594 237.984 32.2344C237.818 33.099 237.568 33.8854 237.234 34.5938C236.891 35.3021 236.453 35.8802 235.922 36.3281C235.391 36.776 234.74 37 233.969 37C233.594 37 233.255 36.9427 232.953 36.8281C232.651 36.7135 232.391 36.5469 232.172 36.3281C232.016 36.1719 231.88 35.9948 231.766 35.7969C231.651 35.5885 231.557 35.3594 231.484 35.1094C231.318 35.3698 231.13 35.6094 230.922 35.8281C230.724 36.0469 230.51 36.2396 230.281 36.4062C230 36.5938 229.698 36.7396 229.375 36.8438C229.052 36.9479 228.714 37 228.359 37C227.849 37 227.406 36.8646 227.031 36.5938C226.656 36.3229 226.354 35.9427 226.125 35.4531C225.885 34.9635 225.719 34.3802 225.625 33.7031C225.542 33.026 225.531 32.2812 225.594 31.4688C225.688 30.3125 225.88 29.2708 226.172 28.3438C226.464 27.4062 226.844 26.6094 227.312 25.9531C227.771 25.3073 228.307 24.8125 228.922 24.4688C229.536 24.1146 230.214 23.9375 230.953 23.9375C231.651 23.9375 232.229 24.0781 232.688 24.3594C233.146 24.6302 233.51 24.9531 233.781 25.3281L233.094 33.2031C233.062 33.6302 233.073 33.9792 233.125 34.25C233.177 34.5104 233.255 34.7135 233.359 34.8594C233.453 35.0156 233.573 35.1198 233.719 35.1719C233.865 35.224 234.021 35.25 234.188 35.25C234.573 35.25 234.911 35.1042 235.203 34.8125C235.505 34.5104 235.755 34.1042 235.953 33.5938C236.151 33.0938 236.302 32.5052 236.406 31.8281C236.51 31.151 236.568 30.4323 236.578 29.6719C236.62 28.349 236.51 27.1615 236.25 26.1094C235.99 25.0573 235.594 24.1667 235.062 23.4375C234.521 22.7083 233.859 22.151 233.078 21.7656C232.297 21.3802 231.406 21.1875 230.406 21.1875C229.396 21.1875 228.474 21.4167 227.641 21.875C226.818 22.3229 226.078 22.9635 225.422 23.7969C224.724 24.6927 224.182 25.776 223.797 27.0469C223.411 28.3073 223.198 29.6927 223.156 31.2031C223.104 32.6198 223.203 33.8802 223.453 34.9844C223.703 36.0885 224.104 37.0208 224.656 37.7812C225.208 38.5521 225.911 39.1406 226.766 39.5469C227.63 39.9427 228.646 40.1406 229.812 40.1406C230.125 40.1406 230.443 40.1198 230.766 40.0781C231.089 40.026 231.406 39.9531 231.719 39.8594C232.031 39.776 232.328 39.6719 232.609 39.5469C232.891 39.4219 233.146 39.2812 233.375 39.125L233.875 40.9531C233.615 41.151 233.318 41.3229 232.984 41.4688C232.651 41.6146 232.302 41.7344 231.938 41.8281C231.573 41.9323 231.203 42.0052 230.828 42.0469C230.453 42.099 230.099 42.125 229.766 42.125C228.234 42.125 226.917 41.8594 225.812 41.3281C224.719 40.7865 223.828 40.0312 223.141 39.0625C222.443 38.0938 221.938 36.9427 221.625 35.6094C221.323 34.2656 221.198 32.7969 221.25 31.2031C221.312 29.5365 221.589 27.9531 222.078 26.4531C222.578 24.9531 223.245 23.6562 224.078 22.5625C224.87 21.5208 225.802 20.7031 226.875 20.1094C227.958 19.5156 229.151 19.2188 230.453 19.2188C231.724 19.2188 232.854 19.4688 233.844 19.9688C234.833 20.4583 235.667 21.1615 236.344 22.0781C237.01 22.9948 237.51 24.099 237.844 25.3906C238.177 26.6719 238.323 28.099 238.281 29.6719ZM227.516 31.4688C227.495 32 227.505 32.4792 227.547 32.9062C227.589 33.3229 227.667 33.6719 227.781 33.9531C227.896 34.2448 228.042 34.4688 228.219 34.625C228.406 34.7708 228.625 34.8438 228.875 34.8438C229.188 34.8438 229.484 34.7917 229.766 34.6875C230.057 34.5833 230.323 34.4167 230.562 34.1875C230.708 34.0417 230.849 33.875 230.984 33.6875C231.12 33.4896 231.245 33.2656 231.359 33.0156L231.375 32.8594L231.969 26.0625C231.823 25.9896 231.672 25.9375 231.516 25.9062C231.37 25.875 231.219 25.8594 231.062 25.8594C230.51 25.8594 230.026 25.9948 229.609 26.2656C229.203 26.526 228.859 26.8958 228.578 27.375C228.297 27.8646 228.068 28.4583 227.891 29.1562C227.724 29.8438 227.599 30.6146 227.516 31.4688ZM241.578 33.4062C241.578 32.1458 241.729 30.9896 242.031 29.9375C242.344 28.875 242.792 27.9635 243.375 27.2031C243.958 26.4427 244.667 25.849 245.5 25.4219C246.333 24.9948 247.276 24.7812 248.328 24.7812C249.005 24.7812 249.625 24.8594 250.188 25.0156C250.76 25.1719 251.276 25.401 251.734 25.7031C251.984 25.8594 252.219 26.0417 252.438 26.25C252.667 26.4583 252.88 26.6875 253.078 26.9375L253.219 25.0938H255.844V41.6406C255.844 42.7552 255.667 43.7448 255.312 44.6094C254.969 45.474 254.484 46.2083 253.859 46.8125C253.224 47.4167 252.469 47.875 251.594 48.1875C250.719 48.5 249.75 48.6562 248.688 48.6562C248.25 48.6562 247.75 48.6042 247.188 48.5C246.625 48.4062 246.057 48.2448 245.484 48.0156C244.901 47.7969 244.339 47.5 243.797 47.125C243.266 46.75 242.807 46.2865 242.422 45.7344L243.922 44C244.276 44.4271 244.641 44.7865 245.016 45.0781C245.391 45.3802 245.771 45.6198 246.156 45.7969C246.542 45.974 246.927 46.099 247.312 46.1719C247.698 46.2552 248.083 46.2969 248.469 46.2969C249.156 46.2969 249.776 46.1979 250.328 46C250.88 45.8021 251.354 45.5104 251.75 45.125C252.135 44.75 252.432 44.2812 252.641 43.7188C252.849 43.1562 252.953 42.5104 252.953 41.7812V40.3281C252.734 40.5781 252.5 40.8073 252.25 41.0156C252.01 41.224 251.75 41.4062 251.469 41.5625C251.031 41.8021 250.547 41.9844 250.016 42.1094C249.484 42.2448 248.911 42.3125 248.297 42.3125C247.266 42.3125 246.333 42.0938 245.5 41.6562C244.667 41.2188 243.964 40.6146 243.391 39.8438C242.807 39.0729 242.359 38.1667 242.047 37.125C241.734 36.0729 241.578 34.9427 241.578 33.7344V33.4062ZM244.469 33.7344C244.469 34.5573 244.552 35.3385 244.719 36.0781C244.896 36.8177 245.172 37.4688 245.547 38.0312C245.911 38.5938 246.38 39.0417 246.953 39.375C247.526 39.6979 248.214 39.8594 249.016 39.8594C249.516 39.8594 249.964 39.8021 250.359 39.6875C250.766 39.5625 251.13 39.3906 251.453 39.1719C251.766 38.9531 252.047 38.6927 252.297 38.3906C252.547 38.0885 252.766 37.7552 252.953 37.3906V29.6406C252.766 29.2865 252.547 28.9635 252.297 28.6719C252.047 28.3802 251.76 28.125 251.438 27.9062C251.115 27.6979 250.755 27.5365 250.359 27.4219C249.964 27.2969 249.526 27.2344 249.047 27.2344C248.234 27.2344 247.536 27.401 246.953 27.7344C246.38 28.0677 245.911 28.5156 245.547 29.0781C245.172 29.651 244.896 30.3125 244.719 31.0625C244.552 31.8021 244.469 32.5833 244.469 33.4062V33.7344ZM262.656 25.0938L262.734 26.6875C263.078 26.0938 263.526 25.6302 264.078 25.2969C264.641 24.9635 265.318 24.7917 266.109 24.7812C266.557 24.7812 266.958 24.8333 267.312 24.9375C267.677 25.0312 267.995 25.1719 268.266 25.3594C268.464 25.5052 268.641 25.6823 268.797 25.8906C268.964 26.099 269.104 26.3333 269.219 26.5938C269.365 26.3542 269.536 26.1302 269.734 25.9219C269.932 25.7135 270.146 25.5312 270.375 25.375C270.667 25.1979 270.99 25.0573 271.344 24.9531C271.708 24.849 272.104 24.7917 272.531 24.7812C273.115 24.7812 273.641 24.8698 274.109 25.0469C274.578 25.2135 274.974 25.4635 275.297 25.7969C275.651 26.1719 275.922 26.6615 276.109 27.2656C276.297 27.8594 276.391 28.5625 276.391 29.375V42H273.641V29.3438C273.641 28.9896 273.599 28.6771 273.516 28.4062C273.432 28.1354 273.312 27.9115 273.156 27.7344C272.99 27.5677 272.781 27.4427 272.531 27.3594C272.292 27.276 272.01 27.2344 271.688 27.2344C271.344 27.2344 271.047 27.2812 270.797 27.375C270.547 27.4688 270.339 27.5938 270.172 27.75C270.005 27.9167 269.875 28.1094 269.781 28.3281C269.688 28.5365 269.625 28.7708 269.594 29.0312C269.594 29.0833 269.594 29.1354 269.594 29.1875C269.594 29.2292 269.594 29.2812 269.594 29.3438V42H266.844V29.3281C266.844 28.974 266.802 28.6615 266.719 28.3906C266.646 28.1198 266.526 27.8958 266.359 27.7188C266.203 27.5521 266.005 27.4323 265.766 27.3594C265.536 27.276 265.266 27.2344 264.953 27.2344C264.609 27.2344 264.307 27.276 264.047 27.3594C263.797 27.4323 263.583 27.5417 263.406 27.6875C263.271 27.8021 263.151 27.9323 263.047 28.0781C262.953 28.224 262.875 28.3802 262.812 28.5469V42H260.062V25.0938H262.656ZM291.656 42C291.542 41.7812 291.448 41.5104 291.375 41.1875C291.312 40.8542 291.266 40.5104 291.234 40.1562C290.943 40.4479 290.615 40.724 290.25 40.9844C289.896 41.2448 289.505 41.474 289.078 41.6719C288.641 41.8698 288.177 42.026 287.688 42.1406C287.198 42.2552 286.677 42.3125 286.125 42.3125C285.229 42.3125 284.417 42.1823 283.688 41.9219C282.969 41.6615 282.359 41.3073 281.859 40.8594C281.349 40.4219 280.953 39.901 280.672 39.2969C280.401 38.6823 280.266 38.0208 280.266 37.3125C280.266 36.3854 280.448 35.5729 280.812 34.875C281.188 34.1771 281.714 33.5938 282.391 33.125C283.068 32.6667 283.88 32.3229 284.828 32.0938C285.786 31.8646 286.854 31.75 288.031 31.75H291.188V30.4219C291.188 29.9115 291.094 29.4531 290.906 29.0469C290.719 28.6406 290.453 28.2917 290.109 28C289.766 27.7188 289.344 27.5 288.844 27.3438C288.354 27.1875 287.802 27.1094 287.188 27.1094C286.615 27.1094 286.099 27.1823 285.641 27.3281C285.193 27.474 284.812 27.6667 284.5 27.9062C284.188 28.1458 283.943 28.4323 283.766 28.7656C283.599 29.0885 283.516 29.4271 283.516 29.7812H280.609C280.62 29.1667 280.776 28.5625 281.078 27.9688C281.391 27.375 281.839 26.8385 282.422 26.3594C282.995 25.8906 283.693 25.5104 284.516 25.2188C285.349 24.9271 286.292 24.7812 287.344 24.7812C288.302 24.7812 289.193 24.901 290.016 25.1406C290.839 25.3698 291.552 25.7188 292.156 26.1875C292.75 26.6667 293.219 27.2604 293.562 27.9688C293.906 28.6771 294.078 29.5052 294.078 30.4531V38.3125C294.078 38.875 294.13 39.474 294.234 40.1094C294.339 40.7344 294.484 41.2812 294.672 41.75V42H291.656ZM286.547 39.7969C287.109 39.7969 287.635 39.724 288.125 39.5781C288.615 39.4323 289.062 39.2396 289.469 39C289.865 38.7604 290.208 38.4896 290.5 38.1875C290.792 37.875 291.021 37.5521 291.188 37.2188V33.7969H288.5C287.5 33.7969 286.625 33.8854 285.875 34.0625C285.135 34.2292 284.547 34.4896 284.109 34.8438C283.797 35.0938 283.557 35.3906 283.391 35.7344C283.234 36.0781 283.156 36.4688 283.156 36.9062C283.156 37.3229 283.224 37.7083 283.359 38.0625C283.505 38.4167 283.719 38.7188 284 38.9688C284.281 39.2292 284.635 39.4323 285.062 39.5781C285.49 39.724 285.984 39.7969 286.547 39.7969ZM300.219 25.0938H308.859V39.5H314.375V42H300.219V39.5H305.969V27.6094H300.219V25.0938ZM305.594 20.6562C305.594 20.4062 305.63 20.1719 305.703 19.9531C305.786 19.7344 305.911 19.5469 306.078 19.3906C306.214 19.2552 306.385 19.151 306.594 19.0781C306.812 18.9948 307.057 18.9531 307.328 18.9531C307.599 18.9531 307.839 18.9948 308.047 19.0781C308.255 19.151 308.427 19.2552 308.562 19.3906C308.729 19.5365 308.854 19.7188 308.938 19.9375C309.021 20.1562 309.062 20.3958 309.062 20.6562C309.062 21.125 308.917 21.5156 308.625 21.8281C308.333 22.1406 307.901 22.2969 307.328 22.2969C306.745 22.2969 306.307 22.1406 306.016 21.8281C305.734 21.5156 305.594 21.125 305.594 20.6562ZM319.438 18H328.078V39.5H333.594V42H319.438V39.5H325.188V20.5156H319.438V18ZM343.234 40.125C343.234 39.5104 343.422 38.9844 343.797 38.5469C344.172 38.1094 344.74 37.8906 345.5 37.8906C346.25 37.8906 346.818 38.1094 347.203 38.5469C347.599 38.974 347.797 39.5 347.797 40.125C347.797 40.7396 347.599 41.2552 347.203 41.6719C346.807 42.0885 346.24 42.2969 345.5 42.2969C344.75 42.2969 344.182 42.0885 343.797 41.6719C343.422 41.2448 343.234 40.7292 343.234 40.125ZM364.625 39.9688C365.146 39.9688 365.651 39.8854 366.141 39.7188C366.641 39.5521 367.083 39.3177 367.469 39.0156C367.854 38.724 368.161 38.3802 368.391 37.9844C368.63 37.5781 368.755 37.1406 368.766 36.6719H371.5C371.49 37.4219 371.292 38.1406 370.906 38.8281C370.531 39.5052 370.026 40.099 369.391 40.6094C368.755 41.1302 368.026 41.5469 367.203 41.8594C366.38 42.1615 365.521 42.3125 364.625 42.3125C363.344 42.3125 362.224 42.0833 361.266 41.625C360.307 41.1667 359.51 40.5469 358.875 39.7656C358.229 38.9948 357.745 38.1042 357.422 37.0938C357.099 36.0729 356.938 35 356.938 33.875V33.2188C356.938 32.1042 357.099 31.0365 357.422 30.0156C357.745 28.9948 358.229 28.0938 358.875 27.3125C359.51 26.5417 360.307 25.9271 361.266 25.4688C362.224 25.0104 363.344 24.7812 364.625 24.7812C365.625 24.7812 366.542 24.9427 367.375 25.2656C368.219 25.5781 368.948 26.0052 369.562 26.5469C370.167 27.099 370.641 27.75 370.984 28.5C371.328 29.25 371.5 30.0521 371.5 30.9062H368.766C368.755 30.3958 368.641 29.9167 368.422 29.4688C368.214 29.0104 367.927 28.6094 367.562 28.2656C367.198 27.9219 366.76 27.651 366.25 27.4531C365.75 27.2552 365.208 27.1562 364.625 27.1562C363.729 27.1562 362.974 27.3385 362.359 27.7031C361.755 28.0573 361.266 28.5208 360.891 29.0938C360.516 29.6771 360.245 30.3281 360.078 31.0469C359.922 31.7656 359.844 32.4896 359.844 33.2188V33.875C359.844 34.6146 359.922 35.349 360.078 36.0781C360.245 36.7969 360.516 37.4427 360.891 38.0156C361.255 38.599 361.74 39.0729 362.344 39.4375C362.958 39.7917 363.719 39.9688 364.625 39.9688ZM375.828 33.3906C375.828 32.1719 376.005 31.0417 376.359 30C376.714 28.9479 377.224 28.0365 377.891 27.2656C378.547 26.4948 379.349 25.8906 380.297 25.4531C381.245 25.0052 382.312 24.7812 383.5 24.7812C384.698 24.7812 385.771 25.0052 386.719 25.4531C387.677 25.8906 388.49 26.4948 389.156 27.2656C389.812 28.0365 390.318 28.9479 390.672 30C391.026 31.0417 391.203 32.1719 391.203 33.3906V33.7344C391.203 34.9531 391.026 36.0833 390.672 37.125C390.318 38.1667 389.812 39.0729 389.156 39.8438C388.49 40.6146 387.682 41.2188 386.734 41.6562C385.786 42.0938 384.719 42.3125 383.531 42.3125C382.333 42.3125 381.255 42.0938 380.297 41.6562C379.349 41.2188 378.547 40.6146 377.891 39.8438C377.224 39.0729 376.714 38.1667 376.359 37.125C376.005 36.0833 375.828 34.9531 375.828 33.7344V33.3906ZM378.719 33.7344C378.719 34.5677 378.818 35.3646 379.016 36.125C379.214 36.875 379.516 37.5365 379.922 38.1094C380.318 38.6823 380.818 39.1354 381.422 39.4688C382.026 39.8021 382.729 39.9688 383.531 39.9688C384.323 39.9688 385.016 39.8021 385.609 39.4688C386.214 39.1354 386.719 38.6823 387.125 38.1094C387.521 37.5365 387.818 36.875 388.016 36.125C388.214 35.3646 388.312 34.5677 388.312 33.7344V33.3906C388.312 32.5677 388.208 31.7812 388 31.0312C387.802 30.2708 387.505 29.6042 387.109 29.0312C386.703 28.4583 386.198 28.0052 385.594 27.6719C385 27.3281 384.302 27.1562 383.5 27.1562C382.698 27.1562 382 27.3281 381.406 27.6719C380.812 28.0052 380.318 28.4583 379.922 29.0312C379.516 29.6042 379.214 30.2708 379.016 31.0312C378.818 31.7812 378.719 32.5677 378.719 33.3906V33.7344ZM397.188 25.0938L397.266 26.6875C397.609 26.0938 398.057 25.6302 398.609 25.2969C399.172 24.9635 399.849 24.7917 400.641 24.7812C401.089 24.7812 401.49 24.8333 401.844 24.9375C402.208 25.0312 402.526 25.1719 402.797 25.3594C402.995 25.5052 403.172 25.6823 403.328 25.8906C403.495 26.099 403.635 26.3333 403.75 26.5938C403.896 26.3542 404.068 26.1302 404.266 25.9219C404.464 25.7135 404.677 25.5312 404.906 25.375C405.198 25.1979 405.521 25.0573 405.875 24.9531C406.24 24.849 406.635 24.7917 407.062 24.7812C407.646 24.7812 408.172 24.8698 408.641 25.0469C409.109 25.2135 409.505 25.4635 409.828 25.7969C410.182 26.1719 410.453 26.6615 410.641 27.2656C410.828 27.8594 410.922 28.5625 410.922 29.375V42H408.172V29.3438C408.172 28.9896 408.13 28.6771 408.047 28.4062C407.964 28.1354 407.844 27.9115 407.688 27.7344C407.521 27.5677 407.312 27.4427 407.062 27.3594C406.823 27.276 406.542 27.2344 406.219 27.2344C405.875 27.2344 405.578 27.2812 405.328 27.375C405.078 27.4688 404.87 27.5938 404.703 27.75C404.536 27.9167 404.406 28.1094 404.312 28.3281C404.219 28.5365 404.156 28.7708 404.125 29.0312C404.125 29.0833 404.125 29.1354 404.125 29.1875C404.125 29.2292 404.125 29.2812 404.125 29.3438V42H401.375V29.3281C401.375 28.974 401.333 28.6615 401.25 28.3906C401.177 28.1198 401.057 27.8958 400.891 27.7188C400.734 27.5521 400.536 27.4323 400.297 27.3594C400.068 27.276 399.797 27.2344 399.484 27.2344C399.141 27.2344 398.839 27.276 398.578 27.3594C398.328 27.4323 398.115 27.5417 397.938 27.6875C397.802 27.8021 397.682 27.9323 397.578 28.0781C397.484 28.224 397.406 28.3802 397.344 28.5469V42H394.594V25.0938H397.188Z" fill="white"/>
<mask id="path-3-inside-1_0_1" fill="white">
<path d="M80.3945 51.6377H14V11H80.3945V51.6377ZM15 50.6377H79.3945V12H78.6426L47.1973 36.7568L15.7529 12H15V50.6377ZM47.1982 35.4844L77.0264 12H17.3691L47.1982 35.4844Z"/>
</mask>
<path d="M80.3945 51.6377H14V11H80.3945V51.6377ZM15 50.6377H79.3945V12H78.6426L47.1973 36.7568L15.7529 12H15V50.6377ZM47.1982 35.4844L77.0264 12H17.3691L47.1982 35.4844Z" fill="#FF0000"/>
<path d="M80.3945 51.6377V52.6377H81.3945V51.6377H80.3945ZM14 51.6377H13V52.6377H14V51.6377ZM14 11V10H13V11H14ZM80.3945 11H81.3945V10H80.3945V11ZM15 50.6377H14V51.6377H15V50.6377ZM79.3945 50.6377V51.6377H80.3945V50.6377H79.3945ZM79.3945 12H80.3945V11H79.3945V12ZM78.6426 12V11H78.2962L78.024 11.2143L78.6426 12ZM47.1973 36.7568L46.5787 37.5425L47.1973 38.0296L47.8159 37.5425L47.1973 36.7568ZM15.7529 12L16.3715 11.2143L16.0993 11H15.7529V12ZM15 12V11H14V12H15ZM47.1982 35.4844L46.5797 36.2701L47.1983 36.7571L47.8168 36.2701L47.1982 35.4844ZM77.0264 12L77.645 12.7857L79.913 11H77.0264V12ZM17.3691 12V11H14.4824L16.7506 12.7857L17.3691 12ZM80.3945 51.6377V50.6377H14V51.6377V52.6377H80.3945V51.6377ZM14 51.6377H15V11H14H13V51.6377H14ZM14 11V12H80.3945V11V10H14V11ZM80.3945 11H79.3945V51.6377H80.3945H81.3945V11H80.3945ZM15 50.6377V51.6377H79.3945V50.6377V49.6377H15V50.6377ZM79.3945 50.6377H80.3945V12H79.3945H78.3945V50.6377H79.3945ZM79.3945 12V11H78.6426V12V13H79.3945V12ZM78.6426 12L78.024 11.2143L46.5787 35.9711L47.1973 36.7568L47.8159 37.5425L79.2612 12.7857L78.6426 12ZM47.1973 36.7568L47.8159 35.9711L16.3715 11.2143L15.7529 12L15.1343 12.7857L46.5787 37.5425L47.1973 36.7568ZM15.7529 12V11H15V12V13H15.7529V12ZM15 12H14V50.6377H15H16V12H15ZM47.1982 35.4844L47.8168 36.2701L77.645 12.7857L77.0264 12L76.4078 11.2143L46.5796 34.6987L47.1982 35.4844ZM77.0264 12V11H17.3691V12V13H77.0264V12ZM17.3691 12L16.7506 12.7857L46.5797 36.2701L47.1982 35.4844L47.8168 34.6987L17.9877 11.2143L17.3691 12Z" fill="white" mask="url(#path-3-inside-1_0_1)"/>
<path d="M47.1973 19.585C53.5193 19.585 58.6443 24.7102 58.6445 31.0322C58.6445 37.3544 53.5194 42.4795 47.1973 42.4795C40.8751 42.4795 35.75 37.3544 35.75 31.0322C35.7502 24.7102 40.8752 19.585 47.1973 19.585Z" fill="white"/>
<path d="M42.8867 38.016V36.544H41.4147V35.104H39.9747V27.552H41.4147V26.144H42.8867V24.672H50.4707V26.144H51.9107V27.552H53.3827V28.992H54.8547V32.224H53.3827V33.664H51.9107V35.104H50.2467V33.888H49.2547V35.104H44.8387V33.888H43.4947V29.984H44.8387V28.736H49.2547V29.984H50.5667V33.6H51.5907V31.904H53.0627V29.312H51.5907V27.872H50.1507V26.432H43.2067V27.872H41.7347V34.784H43.2067V36.224H49.0307V38.016H42.8867ZM45.1587 33.6H48.9347V30.304H45.1587V33.6Z" fill="#FF0000"/>
</svg>
