<svg width="423" height="63" viewBox="0 0 423 63" fill="none" xmlns="http://www.w3.org/2000/svg">
<rect x="0.5" y="0.5" width="422" height="62" rx="8.5" fill="#FF0000" stroke="#FF0000"/>
<path d="M106.344 29.7969H112.703V32.6719H106.344V39.7188H103.453V32.6719H97.1094V29.7969H103.453V23.1562H106.344V29.7969ZM120.562 29.2344H122.625C123.354 29.2344 123.995 29.1354 124.547 28.9375C125.109 28.7396 125.583 28.4688 125.969 28.125C126.344 27.7812 126.63 27.3698 126.828 26.8906C127.026 26.4115 127.125 25.8854 127.125 25.3125C127.125 24.6354 127.036 24.0469 126.859 23.5469C126.682 23.0365 126.422 22.6146 126.078 22.2812C125.745 21.9583 125.328 21.7188 124.828 21.5625C124.339 21.3958 123.776 21.3125 123.141 21.3125C122.526 21.3125 121.964 21.4062 121.453 21.5938C120.953 21.7708 120.526 22.0312 120.172 22.375C119.807 22.7188 119.526 23.1302 119.328 23.6094C119.13 24.0885 119.031 24.625 119.031 25.2188H116.125C116.125 24.3542 116.292 23.5417 116.625 22.7812C116.969 22.0104 117.448 21.3385 118.062 20.7656C118.677 20.2031 119.411 19.7604 120.266 19.4375C121.13 19.1042 122.089 18.9375 123.141 18.9375C124.161 18.9375 125.094 19.0781 125.938 19.3594C126.781 19.6302 127.505 20.0365 128.109 20.5781C128.714 21.1198 129.182 21.7917 129.516 22.5938C129.849 23.3958 130.016 24.3229 130.016 25.375C130.016 25.8125 129.948 26.2656 129.812 26.7344C129.677 27.2031 129.469 27.6562 129.188 28.0938C128.906 28.5417 128.542 28.9635 128.094 29.3594C127.656 29.7448 127.13 30.0677 126.516 30.3281C127.255 30.5677 127.87 30.8802 128.359 31.2656C128.859 31.651 129.26 32.0833 129.562 32.5625C129.854 33.0417 130.057 33.5469 130.172 34.0781C130.297 34.6094 130.359 35.1354 130.359 35.6562C130.359 36.7188 130.177 37.6615 129.812 38.4844C129.448 39.3073 128.943 40 128.297 40.5625C127.651 41.1354 126.885 41.5729 126 41.875C125.125 42.1667 124.177 42.3125 123.156 42.3125C122.156 42.3125 121.214 42.1719 120.328 41.8906C119.453 41.6094 118.693 41.1979 118.047 40.6562C117.401 40.1146 116.885 39.4531 116.5 38.6719C116.125 37.8906 115.938 37 115.938 36H118.828C118.828 36.5938 118.927 37.1354 119.125 37.625C119.333 38.1146 119.625 38.5312 120 38.875C120.375 39.2188 120.828 39.4844 121.359 39.6719C121.901 39.8594 122.5 39.9531 123.156 39.9531C123.812 39.9531 124.406 39.8698 124.938 39.7031C125.469 39.526 125.922 39.2604 126.297 38.9062C126.672 38.5521 126.958 38.1146 127.156 37.5938C127.365 37.0625 127.469 36.4375 127.469 35.7188C127.469 35.0104 127.349 34.401 127.109 33.8906C126.88 33.3698 126.557 32.9375 126.141 32.5938C125.714 32.25 125.198 31.9948 124.594 31.8281C124 31.6615 123.344 31.5781 122.625 31.5781H120.562V29.2344ZM137.438 30.5938L138.578 19.25H150.25V22.0625H141.016L140.375 28.125C140.823 27.8646 141.359 27.6354 141.984 27.4375C142.609 27.2396 143.333 27.1406 144.156 27.1406C145.208 27.1406 146.151 27.3229 146.984 27.6875C147.818 28.0521 148.526 28.5625 149.109 29.2188C149.693 29.8854 150.141 30.6875 150.453 31.625C150.766 32.5625 150.922 33.6042 150.922 34.75C150.922 35.8333 150.776 36.8385 150.484 37.7656C150.193 38.6927 149.755 39.4896 149.172 40.1562C148.578 40.8333 147.833 41.3646 146.938 41.75C146.042 42.125 144.99 42.3125 143.781 42.3125C142.854 42.3125 141.979 42.1823 141.156 41.9219C140.333 41.6615 139.604 41.2708 138.969 40.75C138.323 40.2292 137.792 39.5729 137.375 38.7812C136.969 37.9896 136.714 37.0677 136.609 36.0156H139.359C139.536 37.3073 140.01 38.2865 140.781 38.9531C141.562 39.6198 142.562 39.9531 143.781 39.9531C144.469 39.9531 145.078 39.8333 145.609 39.5938C146.141 39.3438 146.589 38.9896 146.953 38.5312C147.307 38.0833 147.573 37.5417 147.75 36.9062C147.938 36.2708 148.031 35.5625 148.031 34.7812C148.031 34.0729 147.927 33.4115 147.719 32.7969C147.521 32.1823 147.229 31.6458 146.844 31.1875C146.458 30.7396 145.984 30.3854 145.422 30.125C144.859 29.8646 144.214 29.7344 143.484 29.7344C143.005 29.7344 142.589 29.7708 142.234 29.8438C141.891 29.9062 141.578 30 141.297 30.125C141.016 30.25 140.75 30.401 140.5 30.5781C140.26 30.7552 140.01 30.9583 139.75 31.1875L137.438 30.5938ZM158.734 39.4375C160.193 39.4375 161.406 39.2656 162.375 38.9219C163.354 38.5677 164.141 38.0729 164.734 37.4375C165.453 36.6562 165.938 35.8177 166.188 34.9219C166.438 34.026 166.589 33.099 166.641 32.1406V32.1094C166.391 32.4219 166.104 32.7188 165.781 33C165.458 33.2708 165.094 33.5104 164.688 33.7188C164.281 33.9271 163.828 34.0938 163.328 34.2188C162.839 34.3333 162.302 34.3906 161.719 34.3906C160.594 34.3906 159.62 34.1719 158.797 33.7344C157.984 33.2865 157.312 32.7031 156.781 31.9844C156.25 31.2656 155.859 30.4531 155.609 29.5469C155.359 28.6406 155.234 27.7292 155.234 26.8125C155.234 25.7396 155.38 24.7292 155.672 23.7812C155.974 22.8229 156.422 21.9844 157.016 21.2656C157.599 20.5573 158.328 19.9948 159.203 19.5781C160.089 19.151 161.115 18.9375 162.281 18.9375C163.448 18.9375 164.458 19.1562 165.312 19.5938C166.177 20.0208 166.901 20.5885 167.484 21.2969C168.172 22.1302 168.688 23.1719 169.031 24.4219C169.375 25.6615 169.547 26.901 169.547 28.1406V29.1875C169.547 30.9479 169.359 32.7188 168.984 34.5C168.609 36.2708 167.807 37.8438 166.578 39.2188C165.839 40.0521 164.812 40.7292 163.5 41.25C162.198 41.7604 160.609 42.0156 158.734 42.0156H158.438V39.4375H158.734ZM162.188 32C162.677 32 163.151 31.9219 163.609 31.7656C164.078 31.599 164.51 31.3646 164.906 31.0625C165.292 30.7708 165.635 30.4271 165.938 30.0312C166.25 29.625 166.495 29.1771 166.672 28.6875V27.75C166.672 26.7396 166.552 25.8385 166.312 25.0469C166.083 24.2552 165.771 23.5833 165.375 23.0312C164.969 22.4896 164.5 22.0729 163.969 21.7812C163.448 21.4896 162.891 21.3438 162.297 21.3438C161.62 21.3438 161.021 21.4792 160.5 21.75C159.979 22.0208 159.542 22.3906 159.188 22.8594C158.823 23.3385 158.547 23.9062 158.359 24.5625C158.172 25.2083 158.078 25.9062 158.078 26.6562C158.078 27.3229 158.161 27.9792 158.328 28.625C158.495 29.2604 158.75 29.8281 159.094 30.3281C159.427 30.8281 159.849 31.2344 160.359 31.5469C160.88 31.849 161.49 32 162.188 32ZM208.062 25.1875C208.052 25.9479 207.906 26.6615 207.625 27.3281C207.344 27.9844 206.953 28.5625 206.453 29.0625C206.214 29.3021 205.948 29.526 205.656 29.7344C205.365 29.9427 205.052 30.1302 204.719 30.2969C205.302 30.5469 205.828 30.8594 206.297 31.2344C206.776 31.599 207.188 32.0208 207.531 32.5C207.865 32.9792 208.12 33.5 208.297 34.0625C208.484 34.625 208.578 35.224 208.578 35.8594C208.578 36.8906 208.385 37.8073 208 38.6094C207.625 39.4115 207.115 40.0833 206.469 40.625C205.812 41.1771 205.047 41.599 204.172 41.8906C203.297 42.1719 202.359 42.3125 201.359 42.3125C200.339 42.3125 199.385 42.1719 198.5 41.8906C197.625 41.6094 196.865 41.1927 196.219 40.6406C195.562 40.099 195.047 39.4271 194.672 38.625C194.297 37.8229 194.109 36.901 194.109 35.8594C194.109 35.224 194.198 34.625 194.375 34.0625C194.552 33.4896 194.807 32.9635 195.141 32.4844C195.474 32.0156 195.875 31.5938 196.344 31.2188C196.812 30.8438 197.339 30.5312 197.922 30.2812C197.422 30.0312 196.969 29.7344 196.562 29.3906C196.156 29.0365 195.812 28.6406 195.531 28.2031C195.25 27.776 195.031 27.3073 194.875 26.7969C194.719 26.2865 194.641 25.75 194.641 25.1875C194.641 24.1979 194.807 23.3177 195.141 22.5469C195.474 21.7656 195.938 21.1094 196.531 20.5781C197.115 20.0469 197.812 19.6406 198.625 19.3594C199.448 19.0781 200.344 18.9375 201.312 18.9375C202.271 18.9375 203.161 19.0781 203.984 19.3594C204.807 19.6406 205.521 20.0469 206.125 20.5781C206.729 21.1094 207.203 21.7656 207.547 22.5469C207.891 23.3177 208.062 24.1979 208.062 25.1875ZM205.688 35.7969C205.688 35.1615 205.578 34.5781 205.359 34.0469C205.151 33.5156 204.854 33.0573 204.469 32.6719C204.083 32.2969 203.62 32.0052 203.078 31.7969C202.547 31.5885 201.964 31.4844 201.328 31.4844C200.672 31.4844 200.078 31.5885 199.547 31.7969C199.016 32.0052 198.562 32.2969 198.188 32.6719C197.812 33.0573 197.521 33.5156 197.312 34.0469C197.115 34.5781 197.016 35.1615 197.016 35.7969C197.016 36.4531 197.115 37.0417 197.312 37.5625C197.521 38.0729 197.812 38.5052 198.188 38.8594C198.562 39.2135 199.016 39.4844 199.547 39.6719C200.089 39.8594 200.693 39.9531 201.359 39.9531C201.995 39.9531 202.578 39.8594 203.109 39.6719C203.641 39.4844 204.099 39.2135 204.484 38.8594C204.859 38.5052 205.151 38.0729 205.359 37.5625C205.578 37.0417 205.688 36.4531 205.688 35.7969ZM205.156 25.2344C205.156 24.6615 205.057 24.1354 204.859 23.6562C204.672 23.1771 204.411 22.7604 204.078 22.4062C203.734 22.0625 203.328 21.7969 202.859 21.6094C202.391 21.4115 201.875 21.3125 201.312 21.3125C200.75 21.3125 200.24 21.4062 199.781 21.5938C199.323 21.7708 198.927 22.0312 198.594 22.375C198.26 22.7188 198 23.1354 197.812 23.625C197.635 24.1042 197.547 24.6406 197.547 25.2344C197.547 25.8281 197.635 26.3646 197.812 26.8438C198 27.3125 198.266 27.7135 198.609 28.0469C198.943 28.3906 199.339 28.6562 199.797 28.8438C200.266 29.0208 200.781 29.1094 201.344 29.1094C201.896 29.1094 202.406 29.0208 202.875 28.8438C203.344 28.6562 203.75 28.3906 204.094 28.0469C204.427 27.7135 204.688 27.3073 204.875 26.8281C205.062 26.349 205.156 25.8177 205.156 25.2344ZM216.391 39.4375C217.849 39.4375 219.062 39.2656 220.031 38.9219C221.01 38.5677 221.797 38.0729 222.391 37.4375C223.109 36.6562 223.594 35.8177 223.844 34.9219C224.094 34.026 224.245 33.099 224.297 32.1406V32.1094C224.047 32.4219 223.76 32.7188 223.438 33C223.115 33.2708 222.75 33.5104 222.344 33.7188C221.938 33.9271 221.484 34.0938 220.984 34.2188C220.495 34.3333 219.958 34.3906 219.375 34.3906C218.25 34.3906 217.276 34.1719 216.453 33.7344C215.641 33.2865 214.969 32.7031 214.438 31.9844C213.906 31.2656 213.516 30.4531 213.266 29.5469C213.016 28.6406 212.891 27.7292 212.891 26.8125C212.891 25.7396 213.036 24.7292 213.328 23.7812C213.63 22.8229 214.078 21.9844 214.672 21.2656C215.255 20.5573 215.984 19.9948 216.859 19.5781C217.745 19.151 218.771 18.9375 219.938 18.9375C221.104 18.9375 222.115 19.1562 222.969 19.5938C223.833 20.0208 224.557 20.5885 225.141 21.2969C225.828 22.1302 226.344 23.1719 226.688 24.4219C227.031 25.6615 227.203 26.901 227.203 28.1406V29.1875C227.203 30.9479 227.016 32.7188 226.641 34.5C226.266 36.2708 225.464 37.8438 224.234 39.2188C223.495 40.0521 222.469 40.7292 221.156 41.25C219.854 41.7604 218.266 42.0156 216.391 42.0156H216.094V39.4375H216.391ZM219.844 32C220.333 32 220.807 31.9219 221.266 31.7656C221.734 31.599 222.167 31.3646 222.562 31.0625C222.948 30.7708 223.292 30.4271 223.594 30.0312C223.906 29.625 224.151 29.1771 224.328 28.6875V27.75C224.328 26.7396 224.208 25.8385 223.969 25.0469C223.74 24.2552 223.427 23.5833 223.031 23.0312C222.625 22.4896 222.156 22.0729 221.625 21.7812C221.104 21.4896 220.547 21.3438 219.953 21.3438C219.276 21.3438 218.677 21.4792 218.156 21.75C217.635 22.0208 217.198 22.3906 216.844 22.8594C216.479 23.3385 216.203 23.9062 216.016 24.5625C215.828 25.2083 215.734 25.9062 215.734 26.6562C215.734 27.3229 215.818 27.9792 215.984 28.625C216.151 29.2604 216.406 29.8281 216.75 30.3281C217.083 30.8281 217.505 31.2344 218.016 31.5469C218.536 31.849 219.146 32 219.844 32ZM262.375 19.2344V21.8281H262.125C260.75 21.8281 259.583 22.026 258.625 22.4219C257.667 22.8073 256.875 23.3281 256.25 23.9844C255.594 24.6719 255.094 25.4896 254.75 26.4375C254.417 27.3854 254.219 28.3594 254.156 29.3594C254.427 29.0365 254.74 28.7396 255.094 28.4688C255.448 28.1875 255.833 27.9427 256.25 27.7344C256.656 27.5365 257.094 27.3802 257.562 27.2656C258.042 27.1406 258.542 27.0781 259.062 27.0781C260.198 27.0781 261.177 27.2969 262 27.7344C262.823 28.1615 263.5 28.7292 264.031 29.4375C264.562 30.1458 264.953 30.9479 265.203 31.8438C265.453 32.7396 265.578 33.651 265.578 34.5781C265.578 35.6406 265.427 36.6406 265.125 37.5781C264.833 38.5156 264.391 39.3333 263.797 40.0312C263.203 40.7396 262.464 41.2969 261.578 41.7031C260.703 42.1094 259.688 42.3125 258.531 42.3125C257.365 42.3125 256.339 42.0781 255.453 41.6094C254.568 41.1406 253.823 40.5312 253.219 39.7812C252.542 38.9583 252.036 38 251.703 36.9062C251.37 35.8021 251.203 34.6979 251.203 33.5938V32.2344C251.203 30.3385 251.427 28.474 251.875 26.6406C252.323 24.8073 253.198 23.2396 254.5 21.9375C255.396 21.0417 256.484 20.3698 257.766 19.9219C259.047 19.4635 260.5 19.2344 262.125 19.2344H262.375ZM258.594 29.4844C258.104 29.4844 257.63 29.5625 257.172 29.7188C256.714 29.875 256.286 30.0938 255.891 30.375C255.495 30.6562 255.146 30.9948 254.844 31.3906C254.542 31.7865 254.302 32.224 254.125 32.7031V33.6719C254.125 34.6719 254.245 35.5625 254.484 36.3438C254.724 37.1146 255.047 37.7656 255.453 38.2969C255.859 38.8281 256.328 39.2344 256.859 39.5156C257.391 39.7865 257.948 39.9219 258.531 39.9219C259.208 39.9219 259.807 39.7917 260.328 39.5312C260.849 39.2708 261.292 38.9115 261.656 38.4531C262.01 37.9948 262.276 37.4479 262.453 36.8125C262.641 36.1667 262.734 35.4688 262.734 34.7188C262.734 34.0521 262.651 33.4062 262.484 32.7812C262.318 32.1458 262.062 31.5833 261.719 31.0938C261.375 30.6042 260.943 30.2135 260.422 29.9219C259.901 29.6302 259.292 29.4844 258.594 29.4844ZM282.656 34.3594H285.828V36.7188H282.656V42H279.766V36.7188H269.391V35.0156L279.578 19.25H282.656V34.3594ZM272.594 34.3594H279.766V23.0938L279.297 23.9688L272.594 34.3594ZM301.875 34.3594H305.047V36.7188H301.875V42H298.984V36.7188H288.609V35.0156L298.797 19.25H301.875V34.3594ZM291.812 34.3594H298.984V23.0938L298.516 23.9688L291.812 34.3594ZM339.25 19.2344V21.8281H339C337.625 21.8281 336.458 22.026 335.5 22.4219C334.542 22.8073 333.75 23.3281 333.125 23.9844C332.469 24.6719 331.969 25.4896 331.625 26.4375C331.292 27.3854 331.094 28.3594 331.031 29.3594C331.302 29.0365 331.615 28.7396 331.969 28.4688C332.323 28.1875 332.708 27.9427 333.125 27.7344C333.531 27.5365 333.969 27.3802 334.438 27.2656C334.917 27.1406 335.417 27.0781 335.938 27.0781C337.073 27.0781 338.052 27.2969 338.875 27.7344C339.698 28.1615 340.375 28.7292 340.906 29.4375C341.438 30.1458 341.828 30.9479 342.078 31.8438C342.328 32.7396 342.453 33.651 342.453 34.5781C342.453 35.6406 342.302 36.6406 342 37.5781C341.708 38.5156 341.266 39.3333 340.672 40.0312C340.078 40.7396 339.339 41.2969 338.453 41.7031C337.578 42.1094 336.562 42.3125 335.406 42.3125C334.24 42.3125 333.214 42.0781 332.328 41.6094C331.443 41.1406 330.698 40.5312 330.094 39.7812C329.417 38.9583 328.911 38 328.578 36.9062C328.245 35.8021 328.078 34.6979 328.078 33.5938V32.2344C328.078 30.3385 328.302 28.474 328.75 26.6406C329.198 24.8073 330.073 23.2396 331.375 21.9375C332.271 21.0417 333.359 20.3698 334.641 19.9219C335.922 19.4635 337.375 19.2344 339 19.2344H339.25ZM335.469 29.4844C334.979 29.4844 334.505 29.5625 334.047 29.7188C333.589 29.875 333.161 30.0938 332.766 30.375C332.37 30.6562 332.021 30.9948 331.719 31.3906C331.417 31.7865 331.177 32.224 331 32.7031V33.6719C331 34.6719 331.12 35.5625 331.359 36.3438C331.599 37.1146 331.922 37.7656 332.328 38.2969C332.734 38.8281 333.203 39.2344 333.734 39.5156C334.266 39.7865 334.823 39.9219 335.406 39.9219C336.083 39.9219 336.682 39.7917 337.203 39.5312C337.724 39.2708 338.167 38.9115 338.531 38.4531C338.885 37.9948 339.151 37.4479 339.328 36.8125C339.516 36.1667 339.609 35.4688 339.609 34.7188C339.609 34.0521 339.526 33.4062 339.359 32.7812C339.193 32.1458 338.938 31.5833 338.594 31.0938C338.25 30.6042 337.818 30.2135 337.297 29.9219C336.776 29.6302 336.167 29.4844 335.469 29.4844ZM362.219 20.875L352.797 42H349.766L359.156 21.7812H346.844V19.25H362.219V20.875ZM381.312 33.2969C381.312 34.7448 381.146 36.0312 380.812 37.1562C380.479 38.2708 380 39.2083 379.375 39.9688C378.75 40.7396 377.984 41.3229 377.078 41.7188C376.172 42.1146 375.135 42.3125 373.969 42.3125C372.812 42.3125 371.776 42.1198 370.859 41.7344C369.943 41.3385 369.167 40.75 368.531 39.9688C367.896 39.2083 367.411 38.2708 367.078 37.1562C366.745 36.0312 366.578 34.7448 366.578 33.2969V27.9688C366.578 26.5208 366.745 25.2396 367.078 24.125C367.411 23 367.896 22.0521 368.531 21.2812C369.156 20.5104 369.922 19.9271 370.828 19.5312C371.745 19.125 372.781 18.9219 373.938 18.9219C375.104 18.9219 376.141 19.125 377.047 19.5312C377.964 19.9271 378.74 20.5104 379.375 21.2812C380 22.0521 380.479 23 380.812 24.125C381.146 25.2396 381.312 26.5208 381.312 27.9688V33.2969ZM369.484 32.7188L378.344 25.9219C378.26 25.1719 378.109 24.5104 377.891 23.9375C377.682 23.3542 377.396 22.8698 377.031 22.4844C376.677 22.0885 376.24 21.7917 375.719 21.5938C375.208 21.3958 374.615 21.2969 373.938 21.2969C373.25 21.2969 372.641 21.4062 372.109 21.625C371.589 21.8333 371.146 22.1406 370.781 22.5469C370.344 23.0573 370.016 23.7188 369.797 24.5312C369.589 25.3333 369.484 26.2656 369.484 27.3281V31.1406C369.484 31.401 369.484 31.6615 369.484 31.9219C369.484 32.1823 369.484 32.4479 369.484 32.7188ZM378.406 33.9062V30.6875C378.406 30.5312 378.406 30.2344 378.406 29.7969C378.406 29.349 378.406 28.9792 378.406 28.6875L369.562 35.4531C369.656 36.2135 369.823 36.8854 370.062 37.4688C370.302 38.0417 370.615 38.5156 371 38.8906C371.354 39.2448 371.781 39.5156 372.281 39.7031C372.781 39.8802 373.344 39.9688 373.969 39.9688C374.625 39.9688 375.208 39.8698 375.719 39.6719C376.229 39.474 376.661 39.1875 377.016 38.8125C377.495 38.3021 377.844 37.6354 378.062 36.8125C378.292 35.9896 378.406 35.0208 378.406 33.9062ZM389.359 39.4375C390.818 39.4375 392.031 39.2656 393 38.9219C393.979 38.5677 394.766 38.0729 395.359 37.4375C396.078 36.6562 396.562 35.8177 396.812 34.9219C397.062 34.026 397.214 33.099 397.266 32.1406V32.1094C397.016 32.4219 396.729 32.7188 396.406 33C396.083 33.2708 395.719 33.5104 395.312 33.7188C394.906 33.9271 394.453 34.0938 393.953 34.2188C393.464 34.3333 392.927 34.3906 392.344 34.3906C391.219 34.3906 390.245 34.1719 389.422 33.7344C388.609 33.2865 387.938 32.7031 387.406 31.9844C386.875 31.2656 386.484 30.4531 386.234 29.5469C385.984 28.6406 385.859 27.7292 385.859 26.8125C385.859 25.7396 386.005 24.7292 386.297 23.7812C386.599 22.8229 387.047 21.9844 387.641 21.2656C388.224 20.5573 388.953 19.9948 389.828 19.5781C390.714 19.151 391.74 18.9375 392.906 18.9375C394.073 18.9375 395.083 19.1562 395.938 19.5938C396.802 20.0208 397.526 20.5885 398.109 21.2969C398.797 22.1302 399.312 23.1719 399.656 24.4219C400 25.6615 400.172 26.901 400.172 28.1406V29.1875C400.172 30.9479 399.984 32.7188 399.609 34.5C399.234 36.2708 398.432 37.8438 397.203 39.2188C396.464 40.0521 395.438 40.7292 394.125 41.25C392.823 41.7604 391.234 42.0156 389.359 42.0156H389.062V39.4375H389.359ZM392.812 32C393.302 32 393.776 31.9219 394.234 31.7656C394.703 31.599 395.135 31.3646 395.531 31.0625C395.917 30.7708 396.26 30.4271 396.562 30.0312C396.875 29.625 397.12 29.1771 397.297 28.6875V27.75C397.297 26.7396 397.177 25.8385 396.938 25.0469C396.708 24.2552 396.396 23.5833 396 23.0312C395.594 22.4896 395.125 22.0729 394.594 21.7812C394.073 21.4896 393.516 21.3438 392.922 21.3438C392.245 21.3438 391.646 21.4792 391.125 21.75C390.604 22.0208 390.167 22.3906 389.812 22.8594C389.448 23.3385 389.172 23.9062 388.984 24.5625C388.797 25.2083 388.703 25.9062 388.703 26.6562C388.703 27.3229 388.786 27.9792 388.953 28.625C389.12 29.2604 389.375 29.8281 389.719 30.3281C390.052 30.8281 390.474 31.2344 390.984 31.5469C391.505 31.849 392.115 32 392.812 32Z" fill="white"/>
<path d="M43.0554 19.5595L41.0682 20.8896L41.0566 20.8724C39.5473 21.7007 37.6678 21.6164 35.8901 20.7892C34.6912 22.4266 33.8217 24.3452 33.4006 26.467C31.8589 34.2388 36.9093 41.7894 44.6811 43.3313C46.8441 43.7604 48.9885 43.6749 50.9922 43.1657C50.961 41.293 51.6046 39.6126 52.8969 38.5735L52.8861 38.5575L54.8734 37.2274L63.7367 50.478L61.7487 51.8069L61.7379 51.7909C60.1736 52.6493 58.2108 52.5276 56.3768 51.6143C52.3294 53.2078 47.7941 53.6998 43.2107 52.7905C30.4734 50.2634 22.1963 37.8889 24.7232 25.1516C25.5972 20.7467 27.6494 16.8758 30.4867 13.8004C29.9816 11.3307 30.5746 8.97621 32.2164 7.65622L36.6371 14.2639L32.2058 7.63919L34.1929 6.31004L43.0554 19.5595Z" fill="white"/>
</svg>
