<svg version="1.1" viewBox="0.0 0.0 960.0 540.0" fill="none" stroke="none" stroke-linecap="square" stroke-miterlimit="10" xmlns:xlink="http://www.w3.org/1999/xlink" xmlns="http://www.w3.org/2000/svg"><clipPath id="p.0"><path d="m0 0l960.0 0l0 540.0l-960.0 0l0 -540.0z" clip-rule="nonzero"/></clipPath><g clip-path="url(#p.0)"><path fill="#ffffff" d="m0 0l960.0 0l0 540.0l-960.0 0z" fill-rule="evenodd"/><path fill="#ff0000" d="m174.1001 301.46457l0 0c-14.542053 8.401703 -34.467148 1.1254272 -44.503937 -16.251953c-10.036804 -17.37741 -6.384575 -38.275497 8.157471 -46.67717l7.6045837 13.166336l0 0c-7.2710266 4.200836 -8.433609 15.798706 -2.5967102 25.90451c5.836899 10.105835 16.462982 14.892792 23.734009 10.691925z" fill-rule="evenodd"/><path stroke="#ff0000" stroke-width="0.3753280839895013" stroke-linejoin="round" stroke-linecap="butt" d="m174.1001 301.46457l0 0c-14.542053 8.401703 -34.467148 1.1254272 -44.503937 -16.251953c-10.036804 -17.37741 -6.384575 -38.275497 8.157471 -46.67717l7.6045837 13.166336l0 0c-7.2710266 4.200836 -8.433609 15.798706 -2.5967102 25.90451c5.836899 10.105835 16.462982 14.892792 23.734009 10.691925z" fill-rule="evenodd"/><path fill="#ff0000" d="m153.39757 251.6625c-3.2457733 4.243683 -8.937195 5.7782288 -13.876343 3.7414093c-4.939148 -2.0368195 -7.89447 -7.1371307 -7.2053986 -12.435165c0.68907166 -5.2980194 4.850708 -9.472687 10.146561 -10.178329z" fill-rule="evenodd"/><path stroke="#ff0000" stroke-width="0.3753280839895013" stroke-linejoin="round" stroke-linecap="butt" d="m153.39757 251.6625c-3.2457733 4.243683 -8.937195 5.7782288 -13.876343 3.7414093c-4.939148 -2.0368195 -7.89447 -7.1371307 -7.2053986 -12.435165c0.68907166 -5.2980194 4.850708 -9.472687 10.146561 -10.178329z" fill-rule="evenodd"/><path fill="#ff0000" d="m183.63316 300.4639c-3.245758 4.2437134 -8.93718 5.7782593 -13.8763275 3.7414246c-4.939148 -2.0368042 -7.89447 -7.1371155 -7.2053986 -12.43515c0.68907166 -5.2980347 4.850708 -9.472687 10.146561 -10.178345z" fill-rule="evenodd"/><path stroke="#ff0000" stroke-width="0.3753280839895013" stroke-linejoin="round" stroke-linecap="butt" d="m183.63316 300.4639c-3.245758 4.2437134 -8.93718 5.7782593 -13.8763275 3.7414246c-4.939148 -2.0368042 -7.89447 -7.1371155 -7.2053986 -12.43515c0.68907166 -5.2980347 4.850708 -9.472687 10.146561 -10.178345z" fill-rule="evenodd"/><path fill="#000000" fill-opacity="0.0" d="m71.95276 201.44691l0 0c0 -6.295868 5.103798 -11.399673 11.399658 -11.399673l793.29517 0c3.0233765 0 5.9229126 1.2010345 8.060791 3.3388824c2.1378174 2.1378632 3.3388672 5.0373993 3.3388672 8.060791l0 137.10619c0 6.2958374 -5.103821 11.399658 -11.399658 11.399658l-793.29517 0c-6.2958603 0 -11.399658 -5.103821 -11.399658 -11.399658z" fill-rule="evenodd"/><path stroke="#ff0000" stroke-width="1.0" stroke-linejoin="round" stroke-linecap="butt" d="m71.95276 201.44691l0 0c0 -6.295868 5.103798 -11.399673 11.399658 -11.399673l793.29517 0c3.0233765 0 5.9229126 1.2010345 8.060791 3.3388824c2.1378174 2.1378632 3.3388672 5.0373993 3.3388672 8.060791l0 137.10619c0 6.2958374 -5.103821 11.399658 -11.399658 11.399658l-793.29517 0c-6.2958603 0 -11.399658 -5.103821 -11.399658 -11.399658z" fill-rule="evenodd"/><path fill="#ff0000" d="m244.27061 267.5675l0 -11.79689l-7.9375 0l0 11.79689l-10.984375 0l0 7.609375l10.984375 0l0 12.328125l7.9375 0l0 -12.328125l10.953125 0l0 -7.609375l-10.953125 0zm27.521622 -1.140625l0 6.46875l4.515625 0q1.703125 0 3.0625 0.390625q1.375 0.390625 2.359375 1.203125q0.953125 0.796875 1.46875 2.0625q0.515625 1.25 0.515625 3.015625q0 1.40625 -0.4375 2.546875q-0.4375 1.140625 -1.28125 1.921875q-0.859375 0.859375 -2.15625 1.3125q-1.28125 0.453125 -2.90625 0.453125q-1.4375 0 -2.640625 -0.4375q-1.1875 -0.4375 -2.046875 -1.203125q-0.90625 -0.75 -1.390625 -1.8125q-0.46875 -1.0625 -0.46875 -2.328125l-8.328125 0q0 3.171875 1.234375 5.515625q1.25 2.328125 3.3125 3.859375q2.078125 1.5625 4.71875 2.328125q2.65625 0.75 5.4375 0.75q3.234375 0 6.03125 -0.84375q2.796875 -0.859375 4.84375 -2.5q2.03125 -1.625 3.1875 -4.015625q1.171875 -2.390625 1.171875 -5.453125q0 -1.734375 -0.421875 -3.28125q-0.40625 -1.5625 -1.28125 -2.890625q-0.859375 -1.28125 -2.203125 -2.296875q-1.328125 -1.015625 -3.15625 -1.6875q1.5625 -0.75 2.75 -1.78125q1.203125 -1.03125 2.015625 -2.25q0.8125 -1.234375 1.21875 -2.59375q0.421875 -1.359375 0.421875 -2.765625q0 -3.0625 -1.0625 -5.3750153q-1.0625 -2.328125 -2.96875 -3.921875q-1.921875 -1.546875 -4.625 -2.34375q-2.6875 -0.796875 -5.921875 -0.796875q-3.0 0 -5.59375 0.875q-2.578125 0.859375 -4.5 2.421875q-1.921875 1.59375 -3.015625 3.78125q-1.078125 2.1718903 -1.078125 4.8437653l8.3125 0q0 -1.203125 0.484375 -2.15625q0.484375 -0.953125 1.3125 -1.6406403q0.8125 -0.671875 1.90625 -1.03125q1.09375 -0.359375 2.34375 -0.359375q1.53125 0 2.6875 0.421875q1.15625 0.421875 1.90625 1.1718903q0.75 0.78125 1.125 1.84375q0.375 1.0625 0.375 2.34375q0 1.328125 -0.375 2.453125q-0.375 1.109375 -1.125 1.890625q-0.8125 0.90625 -2.125 1.40625q-1.296875 0.484375 -3.09375 0.484375l-4.515625 0zm28.834106 3.984375l6.65625 1.640625q0.46875 -0.46875 1.0 -0.90625q0.546875 -0.4375 1.234375 -0.765625q0.6875 -0.328125 1.578125 -0.53125q0.90625 -0.21875 2.140625 -0.21875q1.828125 0 3.171875 0.578125q1.34375 0.5625 2.25 1.609375q0.890625 1.046875 1.328125 2.5q0.4375 1.453125 0.4375 3.1875q0 1.765625 -0.34375 3.296875q-0.34375 1.53125 -1.0625 2.640625q-0.75 1.09375 -1.9375 1.734375q-1.1875 0.625 -2.859375 0.625q-2.71875 0 -4.46875 -1.546875q-1.75 -1.5625 -2.0625 -4.40625l-8.203125 0q0.09375 3.015625 1.359375 5.375q1.28125 2.34375 3.3125 3.96875q2.046875 1.609375 4.65625 2.453125q2.625 0.828125 5.4375 0.828125q3.71875 0 6.4375 -1.15625q2.734375 -1.171875 4.53125 -3.1875q1.78125 -2.0 2.65625 -4.625q0.875 -2.640625 0.875 -5.578125q0 -3.4375 -0.90625 -6.15625q-0.890625 -2.734375 -2.578125 -4.625q-1.703125 -1.890625 -4.171875 -2.890625q-2.46875 -1.0 -5.609375 -1.0q-2.21875 0 -3.9375 0.578125q-1.703125 0.5625 -2.625 1.09375l1.046875 -9.57814l17.34375 0l0 -7.0625l-24.203125 0l-2.484375 22.125015zm42.099762 14.84375l-0.5625 0l0 6.984375l0.625 0q5.78125 0 9.9375 -1.78125q4.171875 -1.78125 6.859375 -4.984375q2.703125 -3.171875 3.984375 -7.546875q1.296875 -4.375 1.296875 -9.578125l0 -2.875q0 -3.90625 -1.015625 -7.15625q-1.0 -3.2656403 -2.890625 -5.6406403q-1.90625 -2.359375 -4.640625 -3.671875q-2.71875 -1.328125 -6.140625 -1.328125q-3.34375 0 -6.03125 1.21875q-2.671875 1.203125 -4.5625 3.3125q-1.890625 2.09375 -2.890625 4.8906403q-1.0 2.796875 -1.0 5.96875q0 3.09375 0.8125 5.78125q0.828125 2.671875 2.453125 4.640625q1.578125 1.984375 3.9375 3.125q2.375 1.125 5.484375 1.125q1.46875 0 2.703125 -0.25q1.234375 -0.25 2.21875 -0.703125q0.921875 -0.390625 1.703125 -0.921875q0.78125 -0.546875 1.40625 -1.171875l0 0.171875q-0.296875 2.40625 -1.21875 4.34375q-0.90625 1.921875 -2.515625 3.234375q-1.6875 1.375 -4.140625 2.09375q-2.453125 0.71875 -5.8125 0.71875zm7.640625 -13.953125q-1.625 0 -2.828125 -0.671875q-1.1875 -0.671875 -1.96875 -1.8125q-0.796875 -1.140625 -1.1875 -2.65625q-0.390625 -1.53125 -0.390625 -3.203125q0 -1.6875 0.40625 -3.21875q0.421875 -1.546875 1.203125 -2.75q0.78125 -1.1562653 1.9375 -1.8593903q1.15625 -0.71875 2.625 -0.71875q1.34375 0 2.5 0.609375q1.171875 0.59375 2.046875 1.7968903q0.859375 1.1875 1.359375 2.984375q0.5 1.796875 0.5 4.203125l0 2.953125q-0.359375 0.9375 -0.953125 1.734375q-0.578125 0.78125 -1.359375 1.359375q-0.8125 0.59375 -1.78125 0.921875q-0.96875 0.328125 -2.109375 0.328125zm87.62137 -11.4375q0 -2.953125 -1.03125 -5.2187653q-1.03125 -2.265625 -2.859375 -3.828125q-1.859375 -1.546875 -4.375 -2.34375q-2.515625 -0.796875 -5.484375 -0.796875q-2.953125 0 -5.46875 0.796875q-2.5 0.796875 -4.296875 2.34375q-1.8125 1.5625 -2.84375 3.828125q-1.015625 2.2656403 -1.015625 5.2187653q0 1.625 0.4375 3.09375q0.4375 1.46875 1.25 2.6875q0.734375 1.171875 1.828125 2.140625q1.09375 0.953125 2.453125 1.640625q-1.59375 0.75 -2.875 1.8125q-1.265625 1.0625 -2.15625 2.375q-0.90625 1.34375 -1.40625 2.953125q-0.484375 1.59375 -0.484375 3.390625q0 3.09375 1.125 5.4375q1.125 2.328125 3.09375 3.875q1.984375 1.59375 4.65625 2.40625q2.6875 0.796875 5.796875 0.796875q3.078125 0 5.75 -0.796875q2.671875 -0.8125 4.640625 -2.40625q1.953125 -1.546875 3.0625 -3.875q1.125 -2.34375 1.125 -5.4375q0 -2.328125 -0.8125 -4.296875q-0.796875 -1.984375 -2.234375 -3.484375q-0.78125 -0.84375 -1.765625 -1.515625q-0.984375 -0.671875 -2.09375 -1.203125q1.21875 -0.640625 2.21875 -1.484375q1.015625 -0.859375 1.765625 -1.84375q0.953125 -1.328125 1.46875 -2.890625q0.53125 -1.578125 0.53125 -3.375zm-7.421875 19.53125q0 1.5 -0.46875 2.6875q-0.46875 1.171875 -1.28125 2.015625q-0.828125 0.828125 -1.96875 1.265625q-1.140625 0.4375 -2.515625 0.4375q-1.40625 0 -2.546875 -0.40625q-1.140625 -0.40625 -1.9375 -1.1875q-0.875 -0.796875 -1.359375 -2.03125q-0.46875 -1.234375 -0.46875 -2.78125q0 -1.5 0.4375 -2.6875q0.453125 -1.203125 1.265625 -2.078125q0.8125 -0.84375 1.953125 -1.28125q1.15625 -0.453125 2.59375 -0.453125q1.4375 0 2.59375 0.453125q1.15625 0.4375 1.984375 1.28125q0.8125 0.875 1.265625 2.078125q0.453125 1.1875 0.453125 2.6875zm-0.875 -19.140625q0 1.3125 -0.375 2.40625q-0.375 1.09375 -1.0625 1.875q-0.6875 0.78125 -1.6875 1.21875q-0.984375 0.4375 -2.234375 0.4375q-1.265625 0 -2.265625 -0.4375q-1.0 -0.4375 -1.6875 -1.21875q-0.71875 -0.78125 -1.078125 -1.875q-0.359375 -1.09375 -0.359375 -2.4375q0 -1.3125 0.34375 -2.40625q0.34375 -1.09375 1.03125 -1.8437653q0.65625 -0.75 1.640625 -1.15625q1.0 -0.40625 2.28125 -0.40625q1.265625 0 2.265625 0.421875q1.0 0.421875 1.71875 1.1718903q0.6875 0.78125 1.078125 1.859375q0.390625 1.078125 0.390625 2.390625zm23.443481 25.0l-0.5625 0l0 6.984375l0.625 0q5.78125 0 9.9375 -1.78125q4.171875 -1.78125 6.859375 -4.984375q2.703125 -3.171875 3.984375 -7.546875q1.296875 -4.375 1.296875 -9.578125l0 -2.875q0 -3.90625 -1.015625 -7.15625q-1.0 -3.2656403 -2.890625 -5.6406403q-1.90625 -2.359375 -4.640625 -3.671875q-2.71875 -1.328125 -6.140625 -1.328125q-3.34375 0 -6.03125 1.21875q-2.671875 1.203125 -4.5625 3.3125q-1.890625 2.09375 -2.890625 4.8906403q-1.0 2.796875 -1.0 5.96875q0 3.09375 0.8125 5.78125q0.828125 2.671875 2.453125 4.640625q1.578125 1.984375 3.9375 3.125q2.375 1.125 5.484375 1.125q1.46875 0 2.703125 -0.25q1.234375 -0.25 2.21875 -0.703125q0.921875 -0.390625 1.703125 -0.921875q0.78125 -0.546875 1.40625 -1.171875l0 0.171875q-0.296875 2.40625 -1.21875 4.34375q-0.90625 1.921875 -2.515625 3.234375q-1.6875 1.375 -4.140625 2.09375q-2.453125 0.71875 -5.8125 0.71875zm7.640625 -13.953125q-1.625 0 -2.828125 -0.671875q-1.1875 -0.671875 -1.96875 -1.8125q-0.796875 -1.140625 -1.1875 -2.65625q-0.390625 -1.53125 -0.390625 -3.203125q0 -1.6875 0.40625 -3.21875q0.421875 -1.546875 1.203125 -2.75q0.78125 -1.1562653 1.9375 -1.8593903q1.15625 -0.71875 2.625 -0.71875q1.34375 0 2.5 0.609375q1.171875 0.59375 2.046875 1.7968903q0.859375 1.1875 1.359375 2.984375q0.5 1.796875 0.5 4.203125l0 2.953125q-0.359375 0.9375 -0.953125 1.734375q-0.578125 0.78125 -1.359375 1.359375q-0.8125 0.59375 -1.78125 0.921875q-0.96875 0.328125 -2.109375 0.328125zm82.35571 -23.375015l-1.109375 0q-5.421875 0 -9.5625 1.8125q-4.125 1.796875 -6.90625 5.015625q-2.796875 3.2343903 -4.203125 7.6562653q-1.40625 4.40625 -1.40625 9.578125l0 3.21875q0 3.734375 1.0625 6.890625q1.0625 3.15625 3.046875 5.46875q1.9375 2.3125 4.75 3.609375q2.828125 1.296875 6.328125 1.296875q3.359375 0 6.046875 -1.140625q2.703125 -1.15625 4.578125 -3.171875q1.890625 -2.0 2.90625 -4.71875q1.015625 -2.734375 1.015625 -5.90625q0 -2.96875 -0.765625 -5.640625q-0.75 -2.6875 -2.3125 -4.71875q-1.5625 -2.015625 -3.890625 -3.1875q-2.3125 -1.1875 -5.421875 -1.1875q-1.53125 0 -2.859375 0.359375q-1.3125 0.359375 -2.40625 0.921875q-1.140625 0.609375 -2.046875 1.34375q-0.890625 0.734375 -1.578125 1.484375q0.265625 -2.734375 1.296875 -4.9375q1.03125 -2.21875 2.828125 -3.8125q1.765625 -1.59375 4.296875 -2.4531403q2.53125 -0.875 5.828125 -0.875l0.484375 0l0 -6.90625zm-8.265625 21.54689q1.546875 0 2.765625 0.625q1.21875 0.609375 2.046875 1.6875q0.84375 1.109375 1.28125 2.609375q0.453125 1.5 0.453125 3.265625q0 1.765625 -0.453125 3.25q-0.4375 1.46875 -1.28125 2.546875q-0.828125 1.078125 -2.03125 1.703125q-1.203125 0.609375 -2.671875 0.609375q-1.4375 0 -2.671875 -0.59375q-1.21875 -0.609375 -2.109375 -1.796875q-0.90625 -1.171875 -1.40625 -2.96875q-0.484375 -1.796875 -0.484375 -4.1875l0 -2.453125q0.421875 -0.90625 1.03125 -1.65625q0.609375 -0.75 1.359375 -1.3125q0.875 -0.625 1.921875 -0.96875q1.046875 -0.359375 2.25 -0.359375zm47.271606 6.203125l0 -27.39064l-8.4375 0l-18.328125 28.92189l0.328125 5.203125l18.125 0l0 9.46875l8.3125 0l0 -9.46875l5.0625 0l0 -6.734375l-5.0625 0zm-18.59375 0l9.46875 -14.765625l0.8125 -1.4375l0 16.203125l-10.28125 0zm55.396667 0l0 -27.39064l-8.4375 0l-18.328125 28.92189l0.328125 5.203125l18.125 0l0 9.46875l8.3125 0l0 -9.46875l5.0625 0l0 -6.734375l-5.0625 0zm-18.59375 0l9.46875 -14.765625l0.8125 -1.4375l0 16.203125l-10.28125 0zm89.99634 -27.750015l-1.109375 0q-5.421875 0 -9.5625 1.8125q-4.125 1.796875 -6.90625 5.015625q-2.796875 3.2343903 -4.203125 7.6562653q-1.40625 4.40625 -1.40625 9.578125l0 3.21875q0 3.734375 1.0625 6.890625q1.0625 3.15625 3.046875 5.46875q1.9375 2.3125 4.75 3.609375q2.828125 1.296875 6.328125 1.296875q3.359375 0 6.046875 -1.140625q2.703125 -1.15625 4.578125 -3.171875q1.890625 -2.0 2.90625 -4.71875q1.015625 -2.734375 1.015625 -5.90625q0 -2.96875 -0.765625 -5.640625q-0.75 -2.6875 -2.3125 -4.71875q-1.5625 -2.015625 -3.890625 -3.1875q-2.3125 -1.1875 -5.421875 -1.1875q-1.53125 0 -2.859375 0.359375q-1.3125 0.359375 -2.40625 0.921875q-1.140625 0.609375 -2.046875 1.34375q-0.890625 0.734375 -1.578125 1.484375q0.265625 -2.734375 1.296875 -4.9375q1.03125 -2.21875 2.828125 -3.8125q1.765625 -1.59375 4.296875 -2.4531403q2.53125 -0.875 5.828125 -0.875l0.484375 0l0 -6.90625zm-8.265625 21.54689q1.546875 0 2.765625 0.625q1.21875 0.609375 2.046875 1.6875q0.84375 1.109375 1.28125 2.609375q0.453125 1.5 0.453125 3.265625q0 1.765625 -0.453125 3.25q-0.4375 1.46875 -1.28125 2.546875q-0.828125 1.078125 -2.03125 1.703125q-1.203125 0.609375 -2.671875 0.609375q-1.4375 0 -2.671875 -0.59375q-1.21875 -0.609375 -2.109375 -1.796875q-0.90625 -1.171875 -1.40625 -2.96875q-0.484375 -1.796875 -0.484375 -4.1875l0 -2.453125q0.421875 -0.90625 1.03125 -1.65625q0.609375 -0.75 1.359375 -1.3125q0.875 -0.625 1.921875 -0.96875q1.046875 -0.359375 2.25 -0.359375zm51.44348 -16.54689l0 -4.640625l-30.640625 0l0 6.796875l21.890625 0l-17.0 36.79689l8.765625 0l16.984375 -38.95314zm36.709106 22.35939l0 -10.421875q0 -4.21875 -0.984375 -7.4375q-0.984375 -3.2187653 -2.8125 -5.4062653q-1.859375 -2.15625 -4.5 -3.265625q-2.625 -1.109375 -5.921875 -1.109375q-3.265625 0 -5.890625 1.109375q-2.625 1.109375 -4.4375 3.265625q-1.859375 2.1875 -2.859375 5.4062653q-0.984375 3.21875 -0.984375 7.4375l0 10.421875q0 4.21875 1.0 7.453125q1.015625 3.21875 2.859375 5.375q1.828125 2.171875 4.46875 3.28125q2.640625 1.109375 5.90625 1.109375q3.28125 0 5.921875 -1.109375q2.640625 -1.109375 4.46875 -3.28125q1.828125 -2.15625 2.796875 -5.375q0.96875 -3.234375 0.96875 -7.453125zm-20.0 -3.59375q0 -0.921875 0 -1.390625q0 -0.484375 0 -1.921875l0 -4.828125q0 -2.421875 0.375 -4.1875q0.375 -1.765625 1.15625 -2.875q0.71875 -1.0468903 1.78125 -1.5625153q1.0625 -0.53125 2.46875 -0.53125q1.25 0 2.25 0.40625q1.015625 0.390625 1.703125 1.2343903q0.890625 1.046875 1.359375 2.796875q0.46875 1.75 0.515625 4.203125l-11.609375 8.65625zm11.609375 4.859375q0 2.421875 -0.375 4.203125q-0.359375 1.78125 -1.109375 2.921875q-0.71875 1.078125 -1.796875 1.609375q-1.078125 0.515625 -2.484375 0.515625q-1.53125 0 -2.640625 -0.59375q-1.109375 -0.609375 -1.828125 -1.828125q-0.625 -1.015625 -0.96875 -2.546875q-0.34375 -1.53125 -0.40625 -3.5l11.609375 -8.625q0 0.859375 0 1.328125q0 0.46875 0 1.453125l0 5.0625zm22.521606 8.703125l-0.5625 0l0 6.984375l0.625 0q5.78125 0 9.9375 -1.78125q4.171875 -1.78125 6.859375 -4.984375q2.703125 -3.171875 3.984375 -7.546875q1.296875 -4.375 1.296875 -9.578125l0 -2.875q0 -3.90625 -1.015625 -7.15625q-1.0 -3.2656403 -2.890625 -5.6406403q-1.90625 -2.359375 -4.640625 -3.671875q-2.71875 -1.328125 -6.140625 -1.328125q-3.34375 0 -6.03125 1.21875q-2.671875 1.203125 -4.5625 3.3125q-1.890625 2.09375 -2.890625 4.8906403q-1.0 2.796875 -1.0 5.96875q0 3.09375 0.8125 5.78125q0.828125 2.671875 2.453125 4.640625q1.578125 1.984375 3.9375 3.125q2.375 1.125 5.484375 1.125q1.46875 0 2.703125 -0.25q1.234375 -0.25 2.21875 -0.703125q0.921875 -0.390625 1.703125 -0.921875q0.78125 -0.546875 1.40625 -1.171875l0 0.171875q-0.296875 2.40625 -1.21875 4.34375q-0.90625 1.921875 -2.515625 3.234375q-1.6875 1.375 -4.140625 2.09375q-2.453125 0.71875 -5.8125 0.71875zm7.640625 -13.953125q-1.625 0 -2.828125 -0.671875q-1.1875 -0.671875 -1.96875 -1.8125q-0.796875 -1.140625 -1.1875 -2.65625q-0.390625 -1.53125 -0.390625 -3.203125q0 -1.6875 0.40625 -3.21875q0.421875 -1.546875 1.203125 -2.75q0.78125 -1.1562653 1.9375 -1.8593903q1.15625 -0.71875 2.625 -0.71875q1.34375 0 2.5 0.609375q1.171875 0.59375 2.046875 1.7968903q0.859375 1.1875 1.359375 2.984375q0.5 1.796875 0.5 4.203125l0 2.953125q-0.359375 0.9375 -0.953125 1.734375q-0.578125 0.78125 -1.359375 1.359375q-0.8125 0.59375 -1.78125 0.921875q-0.96875 0.328125 -2.109375 0.328125z" fill-rule="nonzero"/></g></svg>