<svg version="1.1" viewBox="70.0 188.0 820.0 164.0" fill="none" stroke="none" stroke-linecap="square" stroke-miterlimit="10" xmlns:xlink="http://www.w3.org/1999/xlink" xmlns="http://www.w3.org/2000/svg"><clipPath id="g3bbe7254502_0_0.0"><path d="m0 0l960.0 0l0 540.0l-960.0 0l0 -540.0z" clip-rule="nonzero"/></clipPath><g clip-path="url(#g3bbe7254502_0_0.0)"><path fill="#ffffff" d="m0 0l960.0 0l0 540.0l-960.0 0z" fill-rule="evenodd"/><path fill="#000000" fill-opacity="0.0" d="m71.95276 201.44691l0 0c0 -6.295868 5.103798 -11.399673 11.399658 -11.399673l793.29517 0c3.0233765 0 5.9229126 1.2010345 8.060791 3.3388824c2.1378174 2.1378632 3.3388672 5.0373993 3.3388672 8.060791l0 137.10619c0 6.2958374 -5.103821 11.399658 -11.399658 11.399658l-793.29517 0c-6.2958603 0 -11.399658 -5.103821 -11.399658 -11.399658z" fill-rule="evenodd"/><path fill="#ff0000" d="m202.0146 236.97374l10.453125 17.90625l9.765625 0l-13.515625 -22.609375l13.0 -20.984375l-9.734375 0l-11.40625 19.1875l-2.0625 0l0 -19.1875l-8.421875 0l0 43.59375l8.421875 0l0 -17.90625l3.5 0zm23.443497 1.40625l0 0.625q0 3.5625 1.015625 6.578125q1.03125 3.015625 3.0 5.21875q1.953125 2.21875 4.8125 3.46875q2.859375 1.234375 6.515625 1.234375q3.625 0 6.46875 -1.234375q2.84375 -1.25 4.78125 -3.46875q1.953125 -2.203125 2.96875 -5.21875q1.015625 -3.015625 1.015625 -6.578125l0 -0.625q0 -3.53125 -1.015625 -6.53125q-1.015625 -3.015625 -2.96875 -5.234375q-1.96875 -2.21875 -4.8125 -3.46875q-2.84375 -1.265625 -6.5 -1.265625q-3.65625 0 -6.484375 1.265625q-2.828125 1.25 -4.78125 3.46875q-1.96875 2.21875 -3.0 5.234375q-1.015625 3.0 -1.015625 6.53125zm8.328125 0.625l0 -0.625q0 -1.96875 0.390625 -3.734375q0.390625 -1.78125 1.234375 -3.125q0.828125 -1.34375 2.140625 -2.125q1.328125 -0.78125 3.1875 -0.78125q1.890625 0 3.203125 0.78125q1.3125 0.78125 2.15625 2.125q0.8125 1.34375 1.1875 3.125q0.390625 1.765625 0.390625 3.734375l0 0.625q0 2.046875 -0.390625 3.828125q-0.375 1.78125 -1.1875 3.09375q-0.84375 1.34375 -2.15625 2.125q-1.3125 0.78125 -3.140625 0.78125q-1.890625 0 -3.234375 -0.78125q-1.328125 -0.78125 -2.15625 -2.125q-0.84375 -1.3125 -1.234375 -3.09375q-0.390625 -1.78125 -0.390625 -3.828125zm43.63098 5.96875l-4.484375 -22.5l-10.359375 0l0 32.40625l7.359375 0l0 -17.609375l4.671875 17.609375l5.59375 0l4.828125 -18.0625l0 18.0625l7.359375 0l0 -32.40625l-10.421875 0l-4.546875 22.5zm51.021637 9.90625l0 -32.40625l-28.828125 0l0 32.40625l8.359375 0l0 -25.640625l12.125 0l0 25.640625l8.34375 0zm14.615356 -18.828125l0 -13.578125l-8.65625 0l0 32.40625l8.65625 0l0 -12.8125l2.484375 0q0.03125 2.84375 0.765625 5.296875q0.734375 2.453125 2.171875 4.25q1.40625 1.828125 3.515625 2.859375q2.125 1.03125 4.96875 1.03125q2.875 0 5.0 -1.125q2.125 -1.140625 3.5625 -3.1875q1.40625 -2.0 2.109375 -4.75q0.703125 -2.765625 0.703125 -5.96875l0 -3.53125q0 -3.203125 -0.703125 -5.953125q-0.703125 -2.765625 -2.140625 -4.796875q-1.4375 -2.0 -3.578125 -3.15625q-2.140625 -1.15625 -5.015625 -1.15625q-2.765625 0 -4.84375 1.078125q-2.078125 1.078125 -3.484375 2.96875q-1.40625 1.875 -2.171875 4.46875q-0.765625 2.59375 -0.859375 5.65625l-2.484375 0zm10.390625 4.421875l0 -3.53125q0 -1.640625 0.15625 -3.1875q0.15625 -1.546875 0.53125 -2.734375q0.390625 -1.203125 1.0625 -1.921875q0.6875 -0.71875 1.703125 -0.71875q1.015625 0 1.703125 0.71875q0.6875 0.71875 1.078125 1.921875q0.390625 1.1875 0.546875 2.734375q0.171875 1.546875 0.171875 3.1875l0 3.53125q0 1.671875 -0.15625 3.21875q-0.140625 1.546875 -0.53125 2.75q-0.390625 1.1875 -1.0625 1.890625q-0.671875 0.703125 -1.6875 0.703125q-1.046875 0 -1.734375 -0.703125q-0.671875 -0.703125 -1.0625 -1.890625q-0.390625 -1.203125 -0.5625 -2.75q-0.15625 -1.546875 -0.15625 -3.21875zm52.146637 -11.3125l0 -6.6875l-33.21875 0l0 6.6875l12.375 0l0 25.71875l8.34375 0l0 -25.71875l12.5 0zm10.349731 25.71875l12.578125 0q3.171875 0 5.625 -0.828125q2.46875 -0.84375 4.140625 -2.28125q1.640625 -1.4375 2.5 -3.375q0.859375 -1.953125 0.859375 -4.203125q0 -2.15625 -0.859375 -3.96875q-0.859375 -1.8125 -2.5 -3.15625q-1.671875 -1.328125 -4.140625 -2.0625q-2.453125 -0.75 -5.625 -0.75l-4.15625 0l0 -11.78125l-16.296875 0l0 6.5l7.875 0l0 25.90625zm8.421875 -14.140625l4.15625 0q1.296875 0 2.1875 0.34375q0.90625 0.34375 1.46875 0.890625q0.546875 0.53125 0.78125 1.1875q0.234375 0.640625 0.234375 1.265625q0 0.71875 -0.234375 1.421875q-0.234375 0.703125 -0.78125 1.28125q-0.5625 0.5625 -1.46875 0.921875q-0.890625 0.359375 -2.1875 0.359375l-4.15625 0l0 -7.671875zm23.177887 26.593765l8.328125 0l0 -15.26564q0.5625 0.625 1.1875 1.140625q0.640625 0.5 1.328125 0.921875q1.15625 0.65625 2.515625 1.0q1.375 0.34375 2.984375 0.34375q3.0625 0 5.421875 -1.25q2.375 -1.265625 3.984375 -3.46875q1.59375 -2.1875 2.40625 -5.21875q0.828125 -3.03125 0.828125 -6.5625l0 -0.625q0 -3.6875 -0.828125 -6.71875q-0.8125 -3.046875 -2.4375 -5.234375q-1.609375 -2.15625 -3.984375 -3.328125q-2.359375 -1.1875 -5.453125 -1.1875q-1.484375 0 -2.796875 0.3125q-1.296875 0.3125 -2.375 0.890625q-0.90625 0.46875 -1.6875 1.125q-0.765625 0.640625 -1.421875 1.4375l-0.3125 -3.171875l-7.6875 0l0 44.85939zm20.65625 -28.98439l0 0.625q0 2.015625 -0.359375 3.796875q-0.359375 1.78125 -1.140625 3.125q-0.765625 1.34375 -2.015625 2.125q-1.234375 0.78125 -3.015625 0.78125q-1.09375 0 -2.0 -0.21875q-0.890625 -0.234375 -1.578125 -0.65625q-0.71875 -0.4375 -1.28125 -1.0625q-0.546875 -0.640625 -0.9375 -1.421875l0 -13.53125q0.421875 -0.84375 1.0 -1.46875q0.578125 -0.625 1.359375 -1.046875q0.6875 -0.359375 1.515625 -0.546875q0.84375 -0.203125 1.875 -0.203125q1.765625 0 3.0 0.75q1.25 0.75 2.0625 2.03125q0.765625 1.328125 1.140625 3.109375q0.375 1.78125 0.375 3.8125zm44.240356 16.53125l0 -32.40625l-8.359375 0l0 13.125l-12.09375 0l0 -13.125l-8.359375 0l0 32.40625l8.359375 0l0 -12.578125l12.09375 0l0 12.578125l8.359375 0zm28.505981 -32.40625l-12.1875 20.671875l0 -20.671875l-8.328125 0l0 32.40625l8.328125 0l12.1875 -20.65625l0 20.65625l8.3125 0l0 -32.40625l-8.3125 0zm82.168274 32.40625l0 -43.59375l-8.328125 0l0 17.875l-12.34375 0l0 -17.875l-8.34375 0l0 43.59375l8.34375 0l0 -18.890625l12.34375 0l0 18.890625l8.328125 0zm28.568481 0l8.4375 0l0 -0.515625q-0.625 -1.21875 -0.953125 -2.921875q-0.328125 -1.71875 -0.328125 -4.3125l0 -13.90625q0 -2.8125 -1.046875 -4.953125q-1.046875 -2.140625 -2.90625 -3.546875q-1.859375 -1.40625 -4.390625 -2.125q-2.53125 -0.71875 -5.46875 -0.71875q-3.265625 0 -5.796875 0.828125q-2.515625 0.8125 -4.265625 2.21875q-1.765625 1.421875 -2.6875 3.28125q-0.90625 1.84375 -0.90625 3.90625l8.328125 0q0 -0.859375 0.25 -1.578125q0.265625 -0.71875 0.796875 -1.234375q0.609375 -0.5625 1.5625 -0.875q0.953125 -0.3125 2.28125 -0.3125q1.484375 0 2.609375 0.375q1.125 0.375 1.875 1.0625q0.71875 0.65625 1.078125 1.578125q0.359375 0.90625 0.359375 2.046875l0 1.90625l-4.640625 0q-3.59375 0 -6.375 0.65625q-2.765625 0.640625 -4.640625 1.859375q-2.09375 1.34375 -3.15625 3.4375q-1.046875 2.078125 -1.046875 4.765625q0 2.09375 0.84375 3.890625q0.84375 1.78125 2.34375 3.0625q1.484375 1.28125 3.5625 2.0q2.09375 0.71875 4.578125 0.71875q1.53125 0 2.84375 -0.28125q1.3125 -0.28125 2.421875 -0.796875q1.078125 -0.46875 1.96875 -1.125q0.90625 -0.671875 1.59375 -1.421875q0.15625 0.875 0.359375 1.65625q0.21875 0.78125 0.515625 1.375zm-7.9375 -5.84375q-1.171875 0 -2.0625 -0.28125q-0.875 -0.28125 -1.46875 -0.765625q-0.609375 -0.5 -0.921875 -1.234375q-0.3125 -0.734375 -0.3125 -1.609375q0 -1.109375 0.421875 -2.046875q0.421875 -0.953125 1.28125 -1.640625q0.875 -0.65625 2.25 -1.03125q1.375 -0.375 3.328125 -0.375l4.25 0l0 5.578125q-0.359375 0.625 -0.984375 1.25q-0.625 0.609375 -1.5 1.078125q-0.875 0.484375 -1.953125 0.78125q-1.078125 0.296875 -2.328125 0.296875zm29.615356 18.937515q2.515625 0 4.359375 -0.84375q1.84375 -0.84375 3.125 -2.0625q1.28125 -1.234375 2.140625 -2.671875q0.859375 -1.4375 1.390625 -2.671875l16.4375 -37.250015l-9.1875 0l-7.390625 19.046875l-1.234375 3.234375l-0.890625 -3.296875l-7.4375 -18.984375l-9.09375 0l13.703125 31.03125l-1.90625 3.5625153q-0.359375 0.65625 -0.625 1.015625q-0.25 0.359375 -0.78125 1.078125q-0.546875 0.71875 -1.3125 1.328125q-0.765625 0.625 -1.75 0.625q-0.46875 0 -1.265625 -0.046875q-0.796875 -0.046875 -1.3125 -0.046875l-1.015625 6.34375q1.078125 0.296875 1.953125 0.453125q0.890625 0.15625 2.09375 0.15625zm44.646606 -25.218765l8.5625 12.125l11.015625 0l-12.84375 -16.796875l11.890625 -15.609375l-10.484375 0l-8.703125 12.40625l-4.3125 0l0 -12.40625l-8.328125 0l0 32.40625l8.328125 0l0 -12.125l4.875 0zm43.75598 -20.28125l-12.1875 20.671875l0 -20.671875l-8.328125 0l0 32.40625l8.328125 0l12.1875 -20.65625l0 20.65625l8.3125 0l0 -32.40625l-8.3125 0z" fill-rule="nonzero"/><path fill="#ff0000" d="m152.1805 319.30185q0 2.65625 1.28125 4.578125q1.296875 1.921875 3.390625 3.140625q2.078125 1.265625 4.71875 1.859375q2.65625 0.59375 5.375 0.59375q3.328125 0 6.125 -0.65625q2.796875 -0.65625 4.84375 -1.90625q2.03125 -1.265625 3.1875 -3.078125q1.15625 -1.8125 1.15625 -4.109375q0 -1.65625 -0.59375 -3.0q-0.578125 -1.34375 -1.6875 -2.375q-0.78125 -0.6875 -1.78125 -1.21875q-1.0 -0.546875 -2.234375 -0.921875q1.015625 -0.421875 1.890625 -0.9375q0.875 -0.53125 1.53125 -1.140625q1.109375 -0.984375 1.703125 -2.203125q0.59375 -1.234375 0.59375 -2.578125q0 -2.3125 -1.0625 -4.078125q-1.0625 -1.765625 -2.96875 -2.96875q-1.953125 -1.15625 -4.6875 -1.765625q-2.71875 -0.625 -6.015625 -0.625q-2.921875 0 -5.53125 0.671875q-2.609375 0.671875 -4.53125 1.9375q-1.9375 1.28125 -3.0625 3.125q-1.125 1.84375 -1.125 4.140625l8.296875 0q0 -0.828125 0.46875 -1.484375q0.484375 -0.671875 1.359375 -1.140625q0.84375 -0.453125 1.984375 -0.6875q1.15625 -0.25 2.5 -0.25q1.625 0 2.765625 0.328125q1.15625 0.328125 1.90625 0.84375q0.71875 0.546875 1.046875 1.21875q0.328125 0.671875 0.328125 1.359375q0 0.6875 -0.265625 1.296875q-0.265625 0.59375 -0.828125 1.0625q-0.421875 0.328125 -1.03125 0.59375q-0.59375 0.25 -1.375 0.421875q-0.53125 0.09375 -1.171875 0.15625q-0.625 0.0625 -1.34375 0.0625l-6.109375 0l0 5.53125l6.109375 0q0.78125 0 1.484375 0.0625q0.703125 0.0625 1.296875 0.15625q1.0 0.171875 1.734375 0.515625q0.734375 0.34375 1.203125 0.859375q0.421875 0.453125 0.640625 1.078125q0.234375 0.625 0.234375 1.40625q0 0.78125 -0.40625 1.5q-0.40625 0.71875 -1.21875 1.28125q-0.828125 0.578125 -2.078125 0.921875q-1.234375 0.34375 -2.890625 0.34375q-1.609375 0 -2.90625 -0.328125q-1.28125 -0.328125 -2.15625 -0.875q-0.859375 -0.53125 -1.328125 -1.234375q-0.46875 -0.703125 -0.46875 -1.484375l-8.296875 0zm57.86537 9.578125l8.4375 0l0 -0.515625q-0.625 -1.21875 -0.953125 -2.921875q-0.328125 -1.71875 -0.328125 -4.3125l0 -13.90625q0 -2.8125 -1.046875 -4.953125q-1.046875 -2.140625 -2.90625 -3.546875q-1.859375 -1.40625 -4.390625 -2.125q-2.53125 -0.71875 -5.46875 -0.71875q-3.265625 0 -5.796875 0.828125q-2.515625 0.8125 -4.265625 2.21875q-1.765625 1.421875 -2.6875 3.28125q-0.90625 1.84375 -0.90625 3.90625l8.328125 0q0 -0.859375 0.25 -1.578125q0.265625 -0.71875 0.796875 -1.234375q0.609375 -0.5625 1.5625 -0.875q0.953125 -0.3125 2.28125 -0.3125q1.484375 0 2.609375 0.375q1.125 0.375 1.875 1.0625q0.71875 0.65625 1.078125 1.578125q0.359375 0.90625 0.359375 2.046875l0 1.90625l-4.640625 0q-3.59375 0 -6.375 0.65625q-2.765625 0.640625 -4.640625 1.859375q-2.09375 1.34375 -3.15625 3.4375q-1.046875 2.078125 -1.046875 4.765625q0 2.09375 0.84375 3.890625q0.84375 1.78125 2.34375 3.0625q1.484375 1.28125 3.5625 2.0q2.09375 0.71875 4.578125 0.71875q1.53125 0 2.84375 -0.28125q1.3125 -0.28125 2.421875 -0.796875q1.078125 -0.46875 1.96875 -1.125q0.90625 -0.671875 1.59375 -1.421875q0.15625 0.875 0.359375 1.65625q0.21875 0.78125 0.515625 1.375zm-7.9375 -5.84375q-1.171875 0 -2.0625 -0.28125q-0.875 -0.28125 -1.46875 -0.765625q-0.609375 -0.5 -0.921875 -1.234375q-0.3125 -0.734375 -0.3125 -1.609375q0 -1.109375 0.421875 -2.046875q0.421875 -0.953125 1.28125 -1.640625q0.875 -0.65625 2.25 -1.03125q1.375 -0.375 3.328125 -0.375l4.25 0l0 5.578125q-0.359375 0.625 -0.984375 1.25q-0.625 0.609375 -1.5 1.078125q-0.875 0.484375 -1.953125 0.78125q-1.078125 0.296875 -2.328125 0.296875zm61.418243 -0.859375l-3.359375 0l0.625 16.40625l7.890625 0l0 -9.703125l19.546875 0l0 9.703125l7.71875 0l0.609375 -16.375l-4.609375 0l0 -25.734375l-23.546875 0l-0.171875 10.96875q-0.0625 2.75 -0.171875 5.234375q-0.09375 2.484375 -0.546875 4.46875q-0.453125 1.96875 -1.375 3.3125q-0.90625 1.328125 -2.609375 1.71875zm13.03125 -14.734375l0.046875 -3.984375l7.015625 0l0 18.75l-9.5 0q0.453125 -1.078125 0.78125 -2.28125q0.328125 -1.203125 0.59375 -2.515625q0.421875 -2.15625 0.65625 -4.65625q0.25 -2.5 0.40625 -5.3125zm39.365356 22.03125q4.703125 0 8.140625 -1.8125q3.453125 -1.828125 5.046875 -4.078125l-4.171875 -4.5q-1.4375 1.859375 -3.75 2.796875q-2.296875 0.921875 -4.75 0.921875q-1.734375 0 -3.203125 -0.53125q-1.46875 -0.546875 -2.609375 -1.53125q-1.109375 -0.96875 -1.765625 -2.140625q-0.65625 -1.1875 -1.078125 -3.140625l0 -0.078125l21.984375 0l0 -3.53125q0 -3.578125 -1.0 -6.515625q-0.984375 -2.953125 -2.859375 -5.046875q-1.921875 -2.09375 -4.671875 -3.25q-2.734375 -1.15625 -6.234375 -1.15625q-3.390625 0 -6.265625 1.234375q-2.875 1.21875 -4.96875 3.4375q-2.09375 2.21875 -3.265625 5.296875q-1.15625 3.0625 -1.15625 6.765625l0 1.203125q0 3.265625 1.171875 6.125q1.1875 2.859375 3.375 4.953125q2.1875 2.125 5.234375 3.359375q3.0625 1.21875 6.796875 1.21875zm-0.984375 -26.859375q1.59375 0 2.796875 0.5q1.21875 0.484375 2.0625 1.328125q0.828125 0.875 1.3125 2.046875q0.484375 1.15625 0.484375 2.484375l0 0.65625l-13.65625 0q0.296875 -1.59375 0.890625 -2.875q0.609375 -1.296875 1.5 -2.21875q0.875 -0.9375 2.03125 -1.421875q1.171875 -0.5 2.578125 -0.5zm21.474762 -6.140625l0 32.40625l24.375 0l0 9.609375l7.6875 0l0.609375 -16.25l-4.734375 0l0 -25.765625l-8.359375 0l0 25.734375l-11.21875 0l0 -25.734375l-8.359375 0zm57.646606 32.40625l8.4375 0l0 -0.515625q-0.625 -1.21875 -0.953125 -2.921875q-0.328125 -1.71875 -0.328125 -4.3125l0 -13.90625q0 -2.8125 -1.046875 -4.953125q-1.046875 -2.140625 -2.90625 -3.546875q-1.859375 -1.40625 -4.390625 -2.125q-2.53125 -0.71875 -5.46875 -0.71875q-3.265625 0 -5.796875 0.828125q-2.515625 0.8125 -4.265625 2.21875q-1.765625 1.421875 -2.6875 3.28125q-0.90625 1.84375 -0.90625 3.90625l8.328125 0q0 -0.859375 0.25 -1.578125q0.265625 -0.71875 0.796875 -1.234375q0.609375 -0.5625 1.5625 -0.875q0.953125 -0.3125 2.28125 -0.3125q1.484375 0 2.609375 0.375q1.125 0.375 1.875 1.0625q0.71875 0.65625 1.078125 1.578125q0.359375 0.90625 0.359375 2.046875l0 1.90625l-4.640625 0q-3.59375 0 -6.375 0.65625q-2.765625 0.640625 -4.640625 1.859375q-2.09375 1.34375 -3.15625 3.4375q-1.046875 2.078125 -1.046875 4.765625q0 2.09375 0.84375 3.890625q0.84375 1.78125 2.34375 3.0625q1.484375 1.28125 3.5625 2.0q2.09375 0.71875 4.578125 0.71875q1.53125 0 2.84375 -0.28125q1.3125 -0.28125 2.421875 -0.796875q1.078125 -0.46875 1.96875 -1.125q0.90625 -0.671875 1.59375 -1.421875q0.15625 0.875 0.359375 1.65625q0.21875 0.78125 0.515625 1.375zm-7.9375 -5.84375q-1.171875 0 -2.0625 -0.28125q-0.875 -0.28125 -1.46875 -0.765625q-0.609375 -0.5 -0.921875 -1.234375q-0.3125 -0.734375 -0.3125 -1.609375q0 -1.109375 0.421875 -2.046875q0.421875 -0.953125 1.28125 -1.640625q0.875 -0.65625 2.25 -1.03125q1.375 -0.375 3.328125 -0.375l4.25 0l0 5.578125q-0.359375 0.625 -0.984375 1.25q-0.625 0.609375 -1.5 1.078125q-0.875 0.484375 -1.953125 0.78125q-1.078125 0.296875 -2.328125 0.296875zm81.21512 -26.5625l-12.1875 20.671875l0 -20.671875l-8.328125 0l0 32.40625l8.328125 0l12.1875 -20.65625l0 20.65625l8.3125 0l0 -32.40625l-8.3125 0zm58.808838 45.5q2.515625 0 4.359375 -0.84375q1.84375 -0.84375 3.125 -2.0625q1.28125 -1.234375 2.140625 -2.671875q0.859375 -1.4375 1.390625 -2.671875l16.4375 -37.25l-9.1875 0l-7.390625 19.046875l-1.234375 3.234375l-0.890625 -3.296875l-7.4375 -18.984375l-9.09375 0l13.703125 31.03125l-1.90625 3.5625q-0.359375 0.65625 -0.625 1.015625q-0.25 0.359375 -0.78125 1.078125q-0.546875 0.71875 -1.3125 1.328125q-0.765625 0.625 -1.75 0.625q-0.46875 0 -1.265625 -0.046875q-0.796875 -0.046875 -1.3125 -0.046875l-1.015625 6.34375q1.078125 0.296875 1.953125 0.453125q0.890625 0.15625 2.09375 0.15625zm61.021606 -13.09375l0 -32.40625l-8.34375 0l0 15.21875q-0.609375 0.125 -1.1875 0.234375q-0.578125 0.09375 -1.1875 0.1875q-0.953125 0.109375 -1.953125 0.171875q-0.984375 0.0625 -2.03125 0.0625q-1.765625 0 -3.046875 -0.28125q-1.28125 -0.28125 -2.125 -0.9375q-0.84375 -0.671875 -1.25 -1.765625q-0.40625 -1.09375 -0.40625 -2.703125l0 -10.1875l-8.3125 0l0 10.1875q0 3.234375 1.046875 5.578125q1.046875 2.328125 3.015625 3.828125q1.953125 1.515625 4.765625 2.25q2.8125 0.734375 6.3125 0.734375q1.53125 0 3.15625 -0.15625q1.640625 -0.171875 3.203125 -0.46875l0 10.453125l8.34375 0zm23.177917 0.59375q4.703125 0 8.140625 -1.8125q3.453125 -1.828125 5.046875 -4.078125l-4.171875 -4.5q-1.4375 1.859375 -3.75 2.796875q-2.296875 0.921875 -4.75 0.921875q-1.734375 0 -3.203125 -0.53125q-1.46875 -0.546875 -2.609375 -1.53125q-1.109375 -0.96875 -1.765625 -2.140625q-0.65625 -1.1875 -1.078125 -3.140625l0 -0.078125l21.984375 0l0 -3.53125q0 -3.578125 -1.0 -6.515625q-0.984375 -2.953125 -2.859375 -5.046875q-1.921875 -2.09375 -4.671875 -3.25q-2.734375 -1.15625 -6.234375 -1.15625q-3.390625 0 -6.265625 1.234375q-2.875 1.21875 -4.96875 3.4375q-2.09375 2.21875 -3.265625 5.296875q-1.15625 3.0625 -1.15625 6.765625l0 1.203125q0 3.265625 1.171875 6.125q1.1875 2.859375 3.375 4.953125q2.1875 2.125 5.234375 3.359375q3.0625 1.21875 6.796875 1.21875zm-0.984375 -26.859375q1.59375 0 2.796875 0.5q1.21875 0.484375 2.0625 1.328125q0.828125 0.875 1.3125 2.046875q0.484375 1.15625 0.484375 2.484375l0 0.65625l-13.65625 0q0.296875 -1.59375 0.890625 -2.875q0.609375 -1.296875 1.5 -2.21875q0.875 -0.9375 2.03125 -1.421875q1.171875 -0.5 2.578125 -0.5zm50.28723 26.265625l0 -32.40625l-8.359375 0l0 13.125l-12.09375 0l0 -13.125l-8.359375 0l0 32.40625l8.359375 0l0 -12.578125l12.09375 0l0 12.578125l8.359375 0zm28.505981 -32.40625l-12.1875 20.671875l0 -20.671875l-8.328125 0l0 32.40625l8.328125 0l12.1875 -20.65625l0 20.65625l8.3125 0l0 -32.40625l-8.3125 0zm16.287231 0l0 32.40625l24.375 0l0 9.609375l7.6875 0l0.609375 -16.25l-4.734375 0l0 -25.765625l-8.359375 0l0 25.734375l-11.21875 0l0 -25.734375l-8.359375 0zm57.31848 0l-12.1875 20.671875l0 -20.671875l-8.328125 0l0 32.40625l8.328125 0l12.1875 -20.65625l0 20.65625l8.3125 0l0 -32.40625l-8.3125 0zm34.84973 17.15625l0.484375 -28.34375l-8.53125 0l0.46875 28.34375l7.578125 0zm-8.65625 11.171875q0 1.921875 1.28125 3.234375q1.296875 1.296875 3.578125 1.296875q2.21875 0 3.53125 -1.296875q1.3125 -1.3125 1.3125 -3.234375q0 -1.96875 -1.3125 -3.28125q-1.3125 -1.328125 -3.53125 -1.328125q-2.28125 0 -3.578125 1.328125q-1.28125 1.3125 -1.28125 3.28125z" fill-rule="nonzero"/></g></svg>